<?xml version="1.0" standalone="no"?>
<!DOCTYPE svg PUBLIC "-//W3C//DTD SVG 20010904//EN"
 "http://www.w3.org/TR/2001/REC-SVG-20010904/DTD/svg10.dtd">
<svg version="1.0" xmlns="http://www.w3.org/2000/svg"
 width="778.000000pt" height="778.000000pt" viewBox="0 0 778.000000 778.000000"
 preserveAspectRatio="xMidYMid meet">
<metadata>
Created by potrace 1.14, written by Peter Selinger 2001-2017
</metadata>
<g transform="translate(0.000000,778.000000) scale(0.100000,-0.100000)"
fill="#000000" stroke="none">
<path d="M1250 3940 l0 -2560 2560 0 2560 0 0 2560 0 2560 -2560 0 -2560 0 0
-2560z m5008 3 l-3 -2448 -2447 -3 -2448 -2 0 2450 0 2450 2450 0 2450 0 -2
-2447z"/>
<path d="M1726 6041 c-3 -4 -5 -278 -3 -607 l2 -599 63 -3 62 -3 0 291 0 290
398 -2 397 -3 3 -287 2 -288 60 0 60 0 0 610 0 611 -61 -3 -60 -3 -2 -260 -2
-260 -397 -3 -398 -2 0 265 0 265 -59 0 c-33 0 -62 -4 -65 -9z"/>
<path d="M4395 6029 c-144 -33 -268 -115 -348 -229 -47 -67 -63 -99 -88 -181
-20 -62 -23 -95 -23 -209 1 -119 4 -145 28 -217 93 -283 359 -445 664 -403 90
12 201 53 264 96 63 44 150 146 184 215 48 98 68 187 67 314 0 129 -17 207
-71 315 -72 147 -235 270 -396 299 -71 13 -225 13 -281 0z m280 -113 c157 -42
274 -167 320 -342 20 -76 19 -242 0 -319 -65 -253 -278 -396 -532 -357 -195
30 -334 162 -384 362 -30 122 -11 312 42 426 48 100 166 199 278 230 61 16
214 17 276 0z"/>
<path d="M3303 5880 c-146 -31 -240 -123 -269 -262 -14 -65 -13 -117 2 -170 4
-15 17 -18 62 -18 l57 0 0 98 c0 80 4 104 22 137 41 77 93 107 196 113 118 7
197 -29 237 -109 44 -86 15 -207 -75 -306 -30 -34 -154 -148 -275 -254 l-221
-194 3 -45 3 -45 370 0 370 0 3 52 3 53 -277 2 -277 3 159 136 c261 223 328
307 355 437 32 155 -53 305 -202 357 -52 19 -190 27 -246 15z"/>
<path d="M2133 2540 c-18 -11 -38 -28 -44 -38 -12 -19 -13 -19 -53 -1 -94 43
-249 15 -297 -53 -45 -62 -45 -154 0 -209 18 -22 18 -23 -15 -56 -43 -43 -46
-88 -8 -133 15 -17 25 -32 23 -33 -2 -2 -16 -8 -30 -16 -32 -16 -59 -60 -59
-96 0 -94 130 -154 310 -142 99 7 144 18 191 50 122 82 97 236 -43 267 -27 5
-107 10 -177 10 -115 0 -130 2 -146 20 -17 18 -17 21 -1 46 16 23 21 25 59 17
107 -21 194 -2 250 54 49 48 59 110 32 199 -8 25 28 44 85 44 43 0 45 4 34 59
-6 28 -10 31 -43 31 -20 0 -50 -9 -68 -20z m-143 -107 c101 -59 37 -216 -82
-200 -140 19 -130 217 10 217 24 0 57 -7 72 -17z m114 -454 c56 -44 17 -119
-74 -138 -111 -24 -233 -7 -267 38 -7 9 -13 31 -13 49 0 26 6 36 33 52 28 17
50 20 163 20 118 0 134 -2 158 -21z"/>
<path d="M2550 2502 c-19 -9 -49 -36 -67 -60 l-33 -44 0 56 0 56 -50 0 -50 0
0 -265 0 -265 50 0 50 0 0 138 c0 172 13 225 70 276 33 30 48 36 84 36 63 0
87 -23 94 -88 4 -50 5 -52 31 -45 50 12 61 22 61 60 0 50 -36 121 -74 144 -40
24 -119 25 -166 1z"/>
<path d="M3049 2507 c-121 -45 -189 -159 -176 -296 6 -72 34 -127 87 -175 59
-53 102 -69 190 -69 91 -1 150 24 208 87 95 103 94 281 -1 384 -48 52 -105 76
-191 79 -51 2 -94 -2 -117 -10z m198 -95 c100 -71 96 -271 -6 -339 -25 -17
-48 -23 -91 -23 -111 0 -174 77 -168 206 4 83 34 139 89 168 47 23 135 17 176
-12z"/>
<path d="M4452 2503 c-18 -8 -46 -31 -62 -50 l-30 -34 -1 38 c-1 21 -1 41 0
46 0 4 -24 7 -54 7 l-55 0 2 -367 3 -368 50 0 50 0 0 143 c0 78 3 142 7 142 4
0 14 -10 23 -23 28 -44 93 -72 165 -71 150 1 242 107 244 280 0 68 -4 89 -28
137 -31 64 -79 109 -135 126 -54 16 -140 13 -179 -6z m145 -80 c54 -25 85 -80
91 -161 3 -54 0 -78 -16 -114 -39 -89 -130 -128 -214 -90 -55 24 -85 65 -100
136 -13 63 1 146 31 183 50 60 138 80 208 46z"/>
<path d="M3570 2340 c0 -239 19 -307 99 -354 80 -47 224 -16 271 59 l20 30 0
-47 0 -48 50 0 50 0 0 265 0 265 -50 0 -50 0 0 -167 c0 -149 -2 -171 -21 -210
-35 -73 -129 -104 -200 -67 -51 26 -59 62 -59 264 l0 180 -55 0 -55 0 0 -170z"/>
</g>
</svg>
