<?xml version="1.0" standalone="no"?>
<!DOCTYPE svg PUBLIC "-//W3C//DTD SVG 20010904//EN"
 "http://www.w3.org/TR/2001/REC-SVG-20010904/DTD/svg10.dtd">
<svg version="1.0" xmlns="http://www.w3.org/2000/svg"
 width="128.000000pt" height="128.000000pt" viewBox="0 0 128.000000 128.000000"
 preserveAspectRatio="xMidYMid meet">
<metadata>
Created by potrace 1.14, written by Peter Selinger 2001-2017
</metadata>
<g transform="translate(0.000000,128.000000) scale(0.100000,-0.100000)"
fill="#000000" stroke="none">
<path d="M370 1093 c-38 -35 -44 -80 -19 -152 23 -67 23 -71 2 -71 -10 0 -45
28 -78 64 l-60 63 -79 -2 c-75 -2 -81 -4 -108 -34 -18 -20 -28 -42 -28 -62 0
-33 74 -287 96 -330 21 -42 91 -96 140 -108 59 -15 976 -14 1009 1 30 14 33
27 31 150 -2 93 -5 107 -29 145 -30 47 -77 85 -126 102 -19 6 -99 11 -185 11
l-152 0 -28 33 c-16 17 -67 74 -114 125 l-85 92 -78 0 c-72 0 -81 -2 -109 -27z
m193 -170 c34 -37 85 -92 113 -122 l51 -55 169 -2 c93 -1 181 -6 196 -12 34
-14 58 -60 58 -112 l0 -41 -449 3 c-427 3 -450 4 -470 22 -13 12 -35 64 -56
131 -38 120 -40 135 -25 135 9 0 20 -11 88 -89 l30 -35 109 -1 c99 -1 110 1
130 22 29 28 29 32 -6 136 -37 110 -25 114 62 20z"/>
<path d="M312 279 c-40 -16 -47 -63 -14 -101 14 -17 46 -18 411 -18 432 0 433
0 444 56 3 20 -2 34 -18 50 l-23 23 -388 0 c-214 0 -399 -5 -412 -10z"/>
</g>
</svg>
