<svg id="Vrstva_1" data-name="Vrstva 1" xmlns="http://www.w3.org/2000/svg" viewBox="0 0 308.23 127.82"><path d="M56.14.05,0,0C1,25.66,2.51,58.74,3.6,73.84c2.88,40,33.6,54.21,52.54,54,18.94.24,49.66-14,52.54-54,1.09-15.1,2.62-48.18,3.6-73.84Z" fill="#2754a2"/><path d="M108.82,32.89a97.84,97.84,0,0,1-43.68,19s5.58-31,20.27-50.84l-29.57.45L26.94,1.1C41.62,20.94,47.21,51.94,47.21,51.94a97.84,97.84,0,0,1-43.68-19L4.2,70.82l.07.23c.38.93,3.06,17.26,3.36,17.09C29,76.14,47.24,73.35,47.24,73.35s-.41,19.88-15.18,46.43c-1,1.77,8.67,3.45,10.75,5.2l12.83,1.47,15.44-2.55c-1.12-1.82,10.19-2.35,9.21-4.12C65.52,93.23,65.11,73.35,65.11,73.35s18.77,2.87,40.58,15.34Z" fill="#fff" fill-rule="evenodd"/><path d="M58,126.39s13.88-2.16,13-3.81A128.8,128.8,0,0,1,56.29,74v0a128.7,128.7,0,0,1-14.69,48.6c-.9,1.65,10.08,3.51,10.08,3.51Z" fill="#e84141"/><polygon points="24.11 50.2 26.48 58.83 35.13 56.57 28.85 62.93 35.13 69.3 26.48 67.04 24.11 75.66 21.73 67.04 13.08 69.3 19.36 62.93 13.08 56.57 21.73 58.83 24.11 50.2" fill="#e84141"/><polygon points="88.78 50.41 91.15 59.03 99.8 56.77 93.52 63.14 99.8 69.5 91.15 67.25 88.78 75.87 86.41 67.25 77.76 69.5 84.04 63.14 77.76 56.77 86.41 59.03 88.78 50.41" fill="#e84141"/><polygon points="56.32 9.95 58.7 18.57 67.35 16.32 61.07 22.68 67.35 29.05 58.7 26.79 56.32 35.41 53.95 26.79 45.3 29.05 51.58 22.68 45.3 16.32 53.95 18.57 56.32 9.95" fill="#e84141"/><path d="M56.14.05,0,0C1,25.66,2.51,58.74,3.6,73.84c2.88,40,33.6,54.21,52.54,54,18.94.24,49.66-14,52.54-54,1.09-15.1,2.62-48.18,3.6-73.84Zm50.37,73.38c-2.76,38.32-32.21,52-50.37,51.75C38,125.4,8.53,111.75,5.76,73.43,4.72,59,3.25,27.24,2.31,2.64l53.83,0,53.82,0C109,27.24,107.56,59,106.51,73.43Z" fill="#010101"/><path d="M136.27,31.09h3.35a8.79,8.79,0,0,0,4-.87,6.19,6.19,0,0,0,2.62-2.44,7.12,7.12,0,0,0,.92-3.69,7.36,7.36,0,0,0-.9-3.69,6.36,6.36,0,0,0-2.58-2.48,8.31,8.31,0,0,0-3.95-.89h-8.43V37.42h4.93ZM138.7,21a4.13,4.13,0,0,1,1.86.38,2.65,2.65,0,0,1,1.15,1.07,3.29,3.29,0,0,1,.39,1.64,3.34,3.34,0,0,1-.39,1.64,2.67,2.67,0,0,1-1.14,1.09,4,4,0,0,1-1.87.39h-2.43V21Z" fill="#fff"/><path d="M155.77,37.71a8.18,8.18,0,0,0,4.14-1A6.7,6.7,0,0,0,162.57,34a8.75,8.75,0,0,0,.93-4.12,8.78,8.78,0,0,0-.93-4.14,6.7,6.7,0,0,0-2.66-2.77,9.15,9.15,0,0,0-8.28,0A6.68,6.68,0,0,0,149,25.69a8.78,8.78,0,0,0-.93,4.14A8.75,8.75,0,0,0,149,34a6.68,6.68,0,0,0,2.65,2.77A8.21,8.21,0,0,0,155.77,37.71Zm-2.44-10.14a3.33,3.33,0,0,1,.94-1.5,2.27,2.27,0,0,1,1.53-.54,2.14,2.14,0,0,1,1.48.54,3.42,3.42,0,0,1,.94,1.5,7.86,7.86,0,0,1,0,4.44,3.44,3.44,0,0,1-.94,1.49,2.14,2.14,0,0,1-1.48.54,2.27,2.27,0,0,1-1.53-.54,3.35,3.35,0,0,1-.94-1.49,7.63,7.63,0,0,1,0-4.44Z" fill="#fff"/><path d="M170.16,34.94h.1a4.88,4.88,0,0,0,.88,1.33,4.41,4.41,0,0,0,1.42,1,4.92,4.92,0,0,0,2,.38,5.59,5.59,0,0,0,3.08-.88,6,6,0,0,0,2.22-2.62,10.36,10.36,0,0,0,.82-4.35,10.06,10.06,0,0,0-.86-4.44,5.91,5.91,0,0,0-2.24-2.58,5.68,5.68,0,0,0-3-.84,4.79,4.79,0,0,0-2.06.41,4.3,4.3,0,0,0-1.42,1.06,5.63,5.63,0,0,0-.85,1.35h-.15V22.13h-4.82v21h4.87Zm.24-7.33a3,3,0,0,1,1-1.39,2.6,2.6,0,0,1,3,0,3.14,3.14,0,0,1,1,1.4,7.38,7.38,0,0,1,0,4.3,3.06,3.06,0,0,1-1,1.41,2.31,2.31,0,0,1-1.52.51,2.35,2.35,0,0,1-1.52-.51,3.06,3.06,0,0,1-1-1.41,7,7,0,0,1,0-4.32Z" fill="#fff"/><path d="M185.54,36.72a9.13,9.13,0,0,0,8.27,0A6.7,6.7,0,0,0,196.47,34a8.75,8.75,0,0,0,.93-4.12,8.78,8.78,0,0,0-.93-4.14,6.7,6.7,0,0,0-2.66-2.77,9.13,9.13,0,0,0-8.27,0,6.64,6.64,0,0,0-2.66,2.77,8.78,8.78,0,0,0-.93,4.14,8.75,8.75,0,0,0,.93,4.12A6.64,6.64,0,0,0,185.54,36.72Zm1.69-9.15a3.33,3.33,0,0,1,.94-1.5,2.27,2.27,0,0,1,1.53-.54,2.17,2.17,0,0,1,1.49.54,3.5,3.5,0,0,1,.93,1.5,7.86,7.86,0,0,1,0,4.44,3.52,3.52,0,0,1-.93,1.49,2.17,2.17,0,0,1-1.49.54,2.27,2.27,0,0,1-1.53-.54,3.35,3.35,0,0,1-.94-1.49,7.63,7.63,0,0,1,0-4.44Z" fill="#fff"/><polygon points="208.29 37.42 213.53 22.13 208.41 22.13 205.58 32.66 205.42 32.66 202.6 22.13 197.47 22.13 202.71 37.42 208.29 37.42" fill="#fff"/><rect x="214.69" y="22.13" width="4.87" height="15.29" fill="#fff"/><path d="M217.14,20.35a2.5,2.5,0,0,0,1.76-.68,2.18,2.18,0,0,0,.73-1.65,2.14,2.14,0,0,0-.73-1.64,2.63,2.63,0,0,0-3.53,0,2.15,2.15,0,0,0-.74,1.64,2.19,2.19,0,0,0,.74,1.65A2.53,2.53,0,0,0,217.14,20.35Z" fill="#fff"/><polygon points="230.85 20.3 235.15 15.84 235.15 15.71 231.08 15.71 229.1 18.02 227.12 15.71 223.04 15.71 223.04 15.84 227.35 20.3 230.85 20.3" fill="#fff"/><path d="M224.94,36.71a8.1,8.1,0,0,0,4.15,1,8.22,8.22,0,0,0,3.71-.78,5.79,5.79,0,0,0,2.44-2.2,6.57,6.57,0,0,0,.94-3.3h-4.55a3.45,3.45,0,0,1-.42,1.37,2.41,2.41,0,0,1-.86.85,2.48,2.48,0,0,1-1.2.29,2.42,2.42,0,0,1-1.49-.48,3.06,3.06,0,0,1-1-1.4,6.58,6.58,0,0,1-.35-2.28,6.51,6.51,0,0,1,.35-2.28,3.08,3.08,0,0,1,1-1.39,2.42,2.42,0,0,1,1.49-.48,2.27,2.27,0,0,1,1.69.67,3,3,0,0,1,.79,1.84h4.55a6.21,6.21,0,0,0-.94-3.28,5.85,5.85,0,0,0-2.47-2.16,8.36,8.36,0,0,0-3.69-.77,8.07,8.07,0,0,0-4.13,1,6.7,6.7,0,0,0-2.66,2.77,8.76,8.76,0,0,0-.93,4.13,8.71,8.71,0,0,0,.93,4.11A6.62,6.62,0,0,0,224.94,36.71Z" fill="#fff"/><polygon points="242.85 32.83 243.84 31.64 247.48 37.42 253.1 37.42 247.46 28.79 252.89 22.13 247.37 22.13 243.07 27.61 242.85 27.61 242.85 17.03 237.98 17.03 237.98 37.42 242.85 37.42 242.85 32.83" fill="#fff"/><path d="M258.28,38.44a1.51,1.51,0,0,1-1.14.92,4.07,4.07,0,0,1-1.82-.25l-1.07,3.54a7.26,7.26,0,0,0,1.33.35,9.66,9.66,0,0,0,1.65.14,7.16,7.16,0,0,0,2.95-.55,5.33,5.33,0,0,0,2-1.51,7.44,7.44,0,0,0,1.18-2.19l5.76-16.75H264L261.11,33H261l-2.82-10.91H253L258.47,38Z" fill="#fff"/><path d="M138.37,55.44a4.44,4.44,0,0,1,2.55-.72,4.91,4.91,0,0,1,1.53.23,3.69,3.69,0,0,1,1.2.67,3.55,3.55,0,0,1,.82,1.06,4.27,4.27,0,0,1,.4,1.38h5a8.92,8.92,0,0,0-.92-3.25,7.78,7.78,0,0,0-2-2.41,8.45,8.45,0,0,0-2.76-1.49,11.06,11.06,0,0,0-3.43-.51,10,10,0,0,0-4.91,1.21,8.79,8.79,0,0,0-3.47,3.55,11.7,11.7,0,0,0-1.29,5.71,11.84,11.84,0,0,0,1.27,5.69,8.65,8.65,0,0,0,3.45,3.56,9.93,9.93,0,0,0,4.95,1.22,10.31,10.31,0,0,0,3.73-.63,8.43,8.43,0,0,0,4.55-4.12,7.71,7.71,0,0,0,.78-2.66l-5,0a4,4,0,0,1-.46,1.32,3.33,3.33,0,0,1-.85,1,3.57,3.57,0,0,1-1.18.61,5,5,0,0,1-1.49.21,4.25,4.25,0,0,1-4.16-2.75,8.87,8.87,0,0,1-.58-3.4,8.71,8.71,0,0,1,.57-3.33A4.67,4.67,0,0,1,138.37,55.44Z" fill="#fff"/><path d="M164.23,56.29a5.3,5.3,0,0,0-2.8-.72,5.07,5.07,0,0,0-2.9.8,4.42,4.42,0,0,0-1.69,2.21h-.17V50.67H152V71.06h4.87V62.34a3.12,3.12,0,0,1,.33-1.49,2.32,2.32,0,0,1,.91-1,2.64,2.64,0,0,1,1.34-.33,2.34,2.34,0,0,1,1.83.71,2.82,2.82,0,0,1,.63,2v8.79h4.87V61.32a6.45,6.45,0,0,0-.65-3A4.8,4.8,0,0,0,164.23,56.29Z" fill="#fff"/><path d="M183,59.33a6.76,6.76,0,0,0-2.66-2.77,9.13,9.13,0,0,0-8.27,0,6.76,6.76,0,0,0-2.66,2.77,9.64,9.64,0,0,0,0,8.26,6.7,6.7,0,0,0,2.66,2.77,9.13,9.13,0,0,0,8.27,0A6.7,6.7,0,0,0,183,67.59a9.64,9.64,0,0,0,0-8.26Zm-4.35,6.32a3.46,3.46,0,0,1-.93,1.49,2.16,2.16,0,0,1-1.48.54,2.24,2.24,0,0,1-1.53-.54,3.31,3.31,0,0,1-1-1.49,7.86,7.86,0,0,1,0-4.44,3.35,3.35,0,0,1,1-1.5,2.28,2.28,0,0,1,1.53-.53,2.2,2.2,0,0,1,1.48.53,3.5,3.5,0,0,1,.93,1.5,7.86,7.86,0,0,1,0,4.44Z" fill="#fff"/><path d="M208.67,71.06V60.77A5.21,5.21,0,0,0,207.31,57a4.71,4.71,0,0,0-3.52-1.39,5.28,5.28,0,0,0-2.94.82,4,4,0,0,0-1.67,2.19H199a3.59,3.59,0,0,0-1.44-2.19,4.6,4.6,0,0,0-2.73-.82,4.55,4.55,0,0,0-2.71.81,4.34,4.34,0,0,0-1.61,2.2h-.17V55.77h-4.63V71.06h4.87V62a3,3,0,0,1,.27-1.31,2.06,2.06,0,0,1,.76-.86,2.12,2.12,0,0,1,1.13-.3,2,2,0,0,1,1.52.61,2.36,2.36,0,0,1,.58,1.69v9.22h4.68V61.94a2.54,2.54,0,0,1,.57-1.75,2,2,0,0,1,1.58-.65,2,2,0,0,1,1.52.6,2.4,2.4,0,0,1,.59,1.75v9.17Z" fill="#fff"/><path d="M213.5,70.55a5.29,5.29,0,0,0,2.75.71,5.11,5.11,0,0,0,2.94-.82,4.48,4.48,0,0,0,1.73-2.22h.16v2.84h4.64V55.77h-4.86v8.69a3.06,3.06,0,0,1-.34,1.51,2.36,2.36,0,0,1-.93,1,2.7,2.7,0,0,1-1.31.32,2.25,2.25,0,0,1-1.76-.72,2.86,2.86,0,0,1-.66-2V55.77H211v9.75a6.69,6.69,0,0,0,.67,3A4.9,4.9,0,0,0,213.5,70.55Z" fill="#fff"/><path d="M237,70.85l-.73-3.52-.48.1a4,4,0,0,1-.59,0,1.82,1.82,0,0,1-.66-.11.86.86,0,0,1-.43-.39,1.65,1.65,0,0,1-.14-.72v-6.9h2.76V55.77H234V52.11h-4.87v3.66h-2v3.59h2v7.43a4.66,4.66,0,0,0,.62,2.58,3.73,3.73,0,0,0,1.86,1.51,7,7,0,0,0,2.94.4,7.64,7.64,0,0,0,1.5-.19Z" fill="#fff"/><path d="M252.31,67.59a9.64,9.64,0,0,0,0-8.26,6.76,6.76,0,0,0-2.66-2.77,9.13,9.13,0,0,0-8.27,0,6.7,6.7,0,0,0-2.66,2.77,9.64,9.64,0,0,0,0,8.26,6.64,6.64,0,0,0,2.66,2.77,9.13,9.13,0,0,0,8.27,0A6.7,6.7,0,0,0,252.31,67.59ZM248,65.65a3.46,3.46,0,0,1-.93,1.49,2.17,2.17,0,0,1-1.49.54,2.27,2.27,0,0,1-1.53-.54,3.3,3.3,0,0,1-.94-1.49,7.63,7.63,0,0,1,0-4.44,3.33,3.33,0,0,1,.94-1.5,2.31,2.31,0,0,1,1.53-.53,2.21,2.21,0,0,1,1.49.53,3.5,3.5,0,0,1,.93,1.5,7.86,7.86,0,0,1,0,4.44Z" fill="#fff"/><polygon points="261.42 66.31 261.26 66.31 258.44 55.77 253.31 55.77 258.55 71.06 264.13 71.06 269.37 55.77 264.25 55.77 261.42 66.31" fill="#fff"/><rect x="270.53" y="55.77" width="4.87" height="15.29" fill="#fff"/><path d="M273,49.34a2.52,2.52,0,0,0-1.76.68,2.2,2.2,0,0,0,0,3.29,2.63,2.63,0,0,0,3.53,0,2.22,2.22,0,0,0,0-3.29A2.53,2.53,0,0,0,273,49.34Z" fill="#fff"/><path d="M283.5,59.75a2.4,2.4,0,0,1,1.48-.47,2.27,2.27,0,0,1,1.7.66,3,3,0,0,1,.79,1.85H292a6.19,6.19,0,0,0-.94-3.28,5.81,5.81,0,0,0-2.47-2.17,8.36,8.36,0,0,0-3.69-.77,8.17,8.17,0,0,0-4.13,1,6.76,6.76,0,0,0-2.66,2.77,9.61,9.61,0,0,0,0,8.25,6.73,6.73,0,0,0,2.65,2.77,9.2,9.2,0,0,0,7.86.21,5.84,5.84,0,0,0,2.44-2.19,6.64,6.64,0,0,0,.94-3.31h-4.55a3.4,3.4,0,0,1-.42,1.37,2.28,2.28,0,0,1-.87.85,2.42,2.42,0,0,1-1.2.29,2.46,2.46,0,0,1-1.48-.47,3.14,3.14,0,0,1-1-1.41,7.6,7.6,0,0,1,0-4.56A3.13,3.13,0,0,1,283.5,59.75Z" fill="#fff"/><path d="M308.23,64.59V63.38a9.32,9.32,0,0,0-.55-3.34,7,7,0,0,0-1.53-2.46,6.53,6.53,0,0,0-2.34-1.5,8.41,8.41,0,0,0-3-.51,7.82,7.82,0,0,0-4,1,6.78,6.78,0,0,0-2.64,2.77,9.74,9.74,0,0,0,0,8.35,6.46,6.46,0,0,0,2.66,2.72,8.44,8.44,0,0,0,4.14.95,9.34,9.34,0,0,0,3.52-.61A6.2,6.2,0,0,0,307,69a5.53,5.53,0,0,0,1.22-2.61l-4.47-.13a2.28,2.28,0,0,1-.57.85,2.48,2.48,0,0,1-.91.53,3.59,3.59,0,0,1-1.17.18,3.17,3.17,0,0,1-1.61-.39,2.69,2.69,0,0,1-1.05-1.09,3.54,3.54,0,0,1-.37-1.64v-.13Zm-8.77-5.14a3,3,0,0,1,1.46-.36,2.91,2.91,0,0,1,1.43.34,2.63,2.63,0,0,1,1,1,2.8,2.8,0,0,1,.37,1.39H298a2.69,2.69,0,0,1,.39-1.33A2.72,2.72,0,0,1,299.46,59.45Z" fill="#fff"/><polygon points="143.78 96.07 143.61 96.07 135.58 84.32 131.34 84.32 131.34 104.71 136.27 104.71 136.27 92.94 136.4 92.94 144.51 104.71 148.7 104.71 148.7 84.32 143.78 84.32 143.78 96.07" fill="#fff"/><path d="M163.41,91.23a6.42,6.42,0,0,0-2.34-1.51,8.68,8.68,0,0,0-3-.5,7.82,7.82,0,0,0-4,1A6.75,6.75,0,0,0,151.43,93a9.81,9.81,0,0,0,0,8.36,6.54,6.54,0,0,0,2.67,2.72,8.55,8.55,0,0,0,4.14,1,9.33,9.33,0,0,0,3.52-.62,6.11,6.11,0,0,0,2.47-1.72,5.53,5.53,0,0,0,1.22-2.61L161,99.92a2.31,2.31,0,0,1-.57.86,2.47,2.47,0,0,1-.91.52,3.59,3.59,0,0,1-1.17.18,3.17,3.17,0,0,1-1.61-.39,2.69,2.69,0,0,1-1.05-1.09,3.5,3.5,0,0,1-.37-1.63v-.13h10.2V97a9.36,9.36,0,0,0-.55-3.34A7,7,0,0,0,163.41,91.23Zm-8.11,4.18a2.72,2.72,0,0,1,.39-1.33,2.88,2.88,0,0,1,1-1,3,3,0,0,1,1.46-.36,3,3,0,0,1,1.43.34,2.63,2.63,0,0,1,1,1,2.8,2.8,0,0,1,.37,1.39Z" fill="#fff"/><path d="M179.57,90.05a5.76,5.76,0,0,0-3-.83,4.65,4.65,0,0,0-2.06.41,4.3,4.3,0,0,0-1.42,1.06,5.58,5.58,0,0,0-.85,1.34h-.1V84.32h-4.86v20.39h4.81v-2.48h.15a4.83,4.83,0,0,0,.88,1.32,4.44,4.44,0,0,0,1.42,1,4.92,4.92,0,0,0,2,.38,5.73,5.73,0,0,0,3.09-.88,6,6,0,0,0,2.21-2.63,10.36,10.36,0,0,0,.82-4.35,10.06,10.06,0,0,0-.86-4.44A6,6,0,0,0,179.57,90.05Zm-2.22,9.16a3.15,3.15,0,0,1-.95,1.42,2.58,2.58,0,0,1-3.05,0,3.09,3.09,0,0,1-1-1.42,7,7,0,0,1,0-4.31,3,3,0,0,1,1-1.39,2.6,2.6,0,0,1,3.05,0,3.06,3.06,0,0,1,.95,1.4,7.35,7.35,0,0,1,0,4.29Z" fill="#fff"/><path d="M194.34,89.39a4.16,4.16,0,0,0-.67-.14,5.43,5.43,0,0,0-.69,0,3.42,3.42,0,0,0-2.2.74,4.15,4.15,0,0,0-1.37,2.25h-.16V89.42h-4.72v15.29h4.86V96.4a3,3,0,0,1,.4-1.59,2.78,2.78,0,0,1,1.08-1.07,3.22,3.22,0,0,1,1.56-.38,7.54,7.54,0,0,1,1,.07,4.09,4.09,0,0,1,.91.19Z" fill="#fff"/><polygon points="191.18 87.58 195.48 83.12 195.48 82.99 191.41 82.99 189.42 85.3 187.45 82.99 183.37 82.99 183.37 83.12 187.68 87.58 191.18 87.58" fill="#fff"/><path d="M207.16,91.23a6.42,6.42,0,0,0-2.34-1.51,8.64,8.64,0,0,0-3-.5,7.84,7.84,0,0,0-4,1A6.88,6.88,0,0,0,195.18,93a9.86,9.86,0,0,0,0,8.36,6.48,6.48,0,0,0,2.67,2.72,8.51,8.51,0,0,0,4.13,1,9.39,9.39,0,0,0,3.53-.62,6.07,6.07,0,0,0,2.46-1.72,5.44,5.44,0,0,0,1.22-2.61l-4.47-.13a2.1,2.1,0,0,1-.57.86,2.5,2.5,0,0,1-.9.52,3.61,3.61,0,0,1-1.18.18,3.17,3.17,0,0,1-1.61-.39,2.6,2.6,0,0,1-1-1.09,3.38,3.38,0,0,1-.37-1.63v-.13h10.19V97a9.36,9.36,0,0,0-.55-3.34A6.72,6.72,0,0,0,207.16,91.23Zm-8.11,4.18a2.8,2.8,0,0,1,1.42-2.32,3,3,0,0,1,1.46-.36,3,3,0,0,1,1.43.34,2.56,2.56,0,0,1,1,1,2.7,2.7,0,0,1,.37,1.39Z" fill="#fff"/><path d="M223.29,89.94a5.3,5.3,0,0,0-2.8-.72,5.18,5.18,0,0,0-2.92.8,4.3,4.3,0,0,0-1.73,2.2h-.17v-2.8H211v15.29h4.87V96a3.39,3.39,0,0,1,.32-1.5,2.23,2.23,0,0,1,.9-.95,2.7,2.7,0,0,1,1.35-.33,2.29,2.29,0,0,1,1.8.72,2.81,2.81,0,0,1,.65,2v8.79h4.86V95a6.39,6.39,0,0,0-.65-3A4.93,4.93,0,0,0,223.29,89.94Z" fill="#fff"/><rect x="228.12" y="89.42" width="4.87" height="15.29" fill="#fff"/><path d="M230.56,83a2.49,2.49,0,0,0-1.76.69,2.19,2.19,0,0,0,0,3.28,2.63,2.63,0,0,0,3.53,0,2.21,2.21,0,0,0,0-3.28A2.49,2.49,0,0,0,230.56,83Z" fill="#fff"/><path d="M241.09,93.39a2.44,2.44,0,0,1,1.48-.47,2.26,2.26,0,0,1,1.7.67,3.06,3.06,0,0,1,.79,1.84h4.55a6.28,6.28,0,0,0-.94-3.28A5.93,5.93,0,0,0,246.2,90a8.37,8.37,0,0,0-3.7-.76,8.13,8.13,0,0,0-4.12,1A6.76,6.76,0,0,0,235.72,93a9.66,9.66,0,0,0,0,8.25,6.7,6.7,0,0,0,2.66,2.77,8.19,8.19,0,0,0,4.14,1,8.1,8.1,0,0,0,3.72-.79,5.84,5.84,0,0,0,2.44-2.19,6.68,6.68,0,0,0,.94-3.31h-4.55a3.25,3.25,0,0,1-.43,1.37,2.19,2.19,0,0,1-.86.85,2.59,2.59,0,0,1-2.68-.18,2.92,2.92,0,0,1-1-1.4,6.4,6.4,0,0,1-.36-2.29,6.25,6.25,0,0,1,.36-2.27A3,3,0,0,1,241.09,93.39Z" fill="#fff"/><path d="M263.73,91.23a6.26,6.26,0,0,0-2.34-1.51,8.59,8.59,0,0,0-3-.5,7.82,7.82,0,0,0-4,1A6.75,6.75,0,0,0,251.76,93a8.73,8.73,0,0,0-.94,4.15,8.93,8.93,0,0,0,.93,4.21,6.48,6.48,0,0,0,2.67,2.72,8.55,8.55,0,0,0,4.14,1,9.33,9.33,0,0,0,3.52-.62,6.11,6.11,0,0,0,2.47-1.72,5.63,5.63,0,0,0,1.22-2.61l-4.47-.13a2.31,2.31,0,0,1-.57.86,2.55,2.55,0,0,1-.91.52,3.59,3.59,0,0,1-1.17.18,3.21,3.21,0,0,1-1.62-.39,2.6,2.6,0,0,1-1-1.09,3.38,3.38,0,0,1-.37-1.63v-.13h10.2V97a9.58,9.58,0,0,0-.55-3.34A6.87,6.87,0,0,0,263.73,91.23Zm-8.1,4.18a2.72,2.72,0,0,1,.39-1.33,2.85,2.85,0,0,1,1-1,3.18,3.18,0,0,1,2.9,0,2.63,2.63,0,0,1,1,1,2.8,2.8,0,0,1,.37,1.39Z" fill="#fff"/></svg>