<svg id="Vrstva_1" data-name="Vrstva 1" xmlns="http://www.w3.org/2000/svg" viewBox="0 0 116.3 131.66"><path d="M58.15,0,0,0C1,26.58,2.6,60.11,3.73,75.76c3,41.39,34.8,56.14,54.42,55.9,19.62.24,51.44-14.51,54.42-55.9C113.7,60.11,115.29,26.58,116.3,0ZM48.39,17.37l7.81,2,2.14-7.78,2.14,7.78,7.81-2-5.67,5.74,5.67,5.75-7.81-2L58.34,34.6,56.2,26.82l-7.81,2,5.67-5.75ZM3.69,33.27C3.22,22.82,2.77,12.05,2.4,2.35l26.24,0c7.27,10.36,12.22,23.3,15.13,32.52A171.55,171.55,0,0,1,48.46,53a88.7,88.7,0,0,1-14-3.46A102.08,102.08,0,0,1,3.87,33.41ZM37.52,72.05l-9.85-2.57L25,79.3l-2.7-9.82-9.86,2.57,7.16-7.25-7.16-7.24,9.86,2.57L25,50.31l2.7,9.82,9.85-2.57L30.37,64.8ZM8.69,90.87A147.69,147.69,0,0,1,36.47,79a105.44,105.44,0,0,1,12.09-3A81.52,81.52,0,0,1,46,91a136,136,0,0,1-12.57,31.48C23,116.57,13.36,106.43,8.69,90.87Zm49.46,38.41a46.77,46.77,0,0,1-14.65-2.35l0-.09a126.89,126.89,0,0,0,8-17.83,142.22,142.22,0,0,0,4.59-15.69C57.22,88.35,57.9,81,58.3,78c.4,3,1.07,10.31,2.22,15.28A140.08,140.08,0,0,0,65.11,109a125.75,125.75,0,0,0,8,17.83h0A46.93,46.93,0,0,1,58.15,129.28Zm24.75-6.8A135.27,135.27,0,0,1,70.34,91,82,82,0,0,1,67.8,76a104.86,104.86,0,0,1,12.1,3,148.32,148.32,0,0,1,27.72,11.81C103,106.39,93.32,116.54,82.9,122.48ZM79.41,57.77l9.85,2.57L92,50.52l2.7,9.82,9.85-2.57L97.36,65l7.15,7.25L94.66,69.7,92,79.51l-2.7-9.81-9.85,2.57L86.56,65ZM112.5,33.41A102.36,102.36,0,0,1,81.9,49.55,88.73,88.73,0,0,1,67.9,53a175.46,175.46,0,0,1,4.7-18.12c2.91-9.22,7.86-22.16,15.13-32.52l26.17,0c-.37,9.72-.82,20.51-1.29,31Z" fill="#fff"/></svg>