<?xml version="1.0" encoding="utf-8"?>
<!-- Generator: Adobe Illustrator 16.0.0, SVG Export Plug-In . SVG Version: 6.00 Build 0)  -->
<!DOCTYPE svg PUBLIC "-//W3C//DTD SVG 1.1//EN" "http://www.w3.org/Graphics/SVG/1.1/DTD/svg11.dtd">
<svg version="1.1" id="Layer_1" xmlns="http://www.w3.org/2000/svg" xmlns:xlink="http://www.w3.org/1999/xlink" x="0px" y="0px"
	 width="1920px" height="1080px" viewBox="0 0 1920 1080" enable-background="new 0 0 1920 1080" xml:space="preserve">
<polyline fill="#4F67FF" points="872,672.5 906.5,579 987.5,579 911,672.5 873,672.5 "/>
<polyline fill="#4F67FF" points="872,408 906.5,501.5 987.5,501.5 911,408 873,408 "/>
<polygon fill="#4F67FF" points="790.167,606.334 799.167,579 840.167,579 821.5,606.334 "/>
<polygon fill="#4F67FF" points="790.167,474 799.167,501.334 840.167,501.334 821.5,474 "/>
<g>
	<path fill="#4F67FF" d="M754.325,546.104v19.142h-8.96v-50.489h20.98c5.924,0,10.564,1.438,13.92,4.316s5.033,6.664,5.033,11.356
		c0,4.74-1.678,8.537-5.033,11.392c-3.354,2.855-7.996,4.283-13.92,4.283H754.325L754.325,546.104z M754.325,539.341h12.021
		c3.319,0,5.813-0.832,7.485-2.496c1.671-1.665,2.508-3.78,2.508-6.347c0-2.565-0.836-4.704-2.508-6.415
		c-1.672-1.71-4.167-2.566-7.485-2.566h-12.021V539.341z"/>
	<path fill="#4F67FF" d="M803.626,565.244h-8.96v-50.489h8.96V565.244z"/>
	<path fill="#4F67FF" d="M824.828,558.483h24.669v6.762h-33.629v-50.489h8.96V558.483z"/>
	<path fill="#4F67FF" d="M897.064,544.543c0,6.173-2.06,11.286-6.177,15.345c-4.118,4.057-9.458,6.086-16.021,6.086
		c-6.441,0-11.671-2.029-15.69-6.086c-4.02-4.059-6.028-9.172-6.028-15.345v-9.086c0-6.149,2.01-11.259,6.028-15.327
		c4.02-4.068,9.237-6.104,15.653-6.104c6.563,0,11.91,2.035,16.04,6.104s6.194,9.178,6.194,15.327V544.543L897.064,544.543z
		 M888.141,535.388c0-4.207-1.197-7.663-3.595-10.368c-2.396-2.705-5.636-4.057-9.716-4.057c-3.934,0-7.043,1.352-9.329,4.057
		s-3.429,6.161-3.429,10.368v9.155c0,4.254,1.143,7.738,3.429,10.455s5.408,4.073,9.366,4.073c4.104,0,7.343-1.353,9.716-4.057
		c2.372-2.705,3.558-6.195,3.558-10.474V535.388L888.141,535.388z"/>
	<path fill="#4F67FF" d="M942.383,521.517h-16.225v43.728h-8.96v-43.728h-16.226v-6.762h41.41V521.517z"/>
	<path fill="#4F67FF" d="M974.61,553.454h-21.019l-4.277,11.79h-9.07l19.728-50.489h8.482l19.506,50.489h-9.106L974.61,553.454z
		 M956.173,546.414h15.894l-7.781-21.568h-0.221L956.173,546.414z"/>
	<path fill="#4F67FF" d="M1009.346,543.398h-6.194v21.847h-8.96v-50.489h8.96v21.396h5.126l16.852-21.396h10.62l-19.543,24.101
		l21.055,26.39h-10.95L1009.346,543.398z"/>
	<path fill="#4F67FF" d="M1051.566,565.244h-8.924v-8.08h8.924V565.244z"/>
	<path fill="#4F67FF" d="M1103.117,548.495l0.072,0.208c0.1,5.109-1.664,9.266-5.291,12.468c-3.625,3.201-8.536,4.803-14.73,4.803
		c-6.27,0-11.363-1.982-15.285-5.947c-3.921-3.965-5.881-9.033-5.881-15.206v-9.604c0-6.149,1.936-11.219,5.808-15.206
		c3.872-3.988,8.905-5.982,15.102-5.982c6.342,0,11.338,1.566,14.987,4.699c3.65,3.133,5.427,7.346,5.328,12.64l-0.071,0.208h-8.666
		c0-3.397-0.979-6.045-2.933-7.94c-1.955-1.896-4.837-2.844-8.646-2.844c-3.664,0-6.57,1.362-8.722,4.089
		c-2.151,2.726-3.227,6.144-3.227,10.255v9.667c0,4.158,1.1,7.599,3.3,10.323c2.2,2.726,5.168,4.089,8.905,4.089
		c3.711,0,6.526-0.934,8.443-2.8c1.918-1.866,2.877-4.506,2.877-7.916h8.629V548.495z"/>
	<path fill="#4F67FF" d="M1120.005,558.483h28.024v6.762h-38.682v-5.298l26.955-38.43h-26.733v-6.762h37.538v5.063L1120.005,558.483
		z"/>
</g>
</svg>
