<?xml version="1.0" standalone="no"?>
<!DOCTYPE svg PUBLIC "-//W3C//DTD SVG 20010904//EN"
 "http://www.w3.org/TR/2001/REC-SVG-20010904/DTD/svg10.dtd">
<svg version="1.0" xmlns="http://www.w3.org/2000/svg"
 width="700.000000pt" height="700.000000pt" viewBox="0 0 700.000000 700.000000"
 preserveAspectRatio="xMidYMid meet">
<metadata>
Created by potrace 1.14, written by Peter Selinger 2001-2017
</metadata>
<g transform="translate(0.000000,700.000000) scale(0.100000,-0.100000)"
fill="#000000" stroke="none">
<path d="M2359 5779 c-253 -65 -425 -294 -413 -552 3 -69 18 -123 110 -401 59
-176 109 -326 111 -331 4 -11 -262 -15 -270 -5 -5 7 -99 120 -123 150 -12 14
-93 111 -180 215 -181 218 -181 217 -254 253 l-55 27 -330 0 c-250 0 -340 -3
-370 -13 -207 -70 -351 -229 -389 -427 -23 -123 -14 -178 76 -470 22 -71 41
-137 43 -145 2 -8 50 -166 105 -350 56 -184 113 -373 127 -420 45 -156 93
-290 127 -358 117 -229 306 -416 537 -532 68 -35 217 -87 275 -96 21 -3 41 -7
44 -9 3 -2 37 -7 75 -11 93 -10 4935 -11 5003 -1 108 16 196 79 250 180 l27
52 1 440 c2 393 0 450 -17 530 -64 311 -218 555 -469 744 -124 93 -320 183
-450 207 -25 4 -47 8 -50 9 -59 14 -262 19 -868 19 l-734 1 -31 35 c-16 19
-72 80 -122 135 -101 110 -111 120 -229 249 -44 48 -92 100 -106 115 -47 50
-209 226 -227 247 -10 12 -61 67 -113 124 -128 138 -134 145 -220 240 -41 45
-93 94 -115 110 -75 51 -97 54 -413 55 -250 1 -302 -1 -363 -16z m545 -742
c52 -57 104 -113 113 -124 10 -11 61 -67 114 -124 53 -57 108 -117 124 -134
15 -16 66 -72 113 -124 48 -52 98 -106 110 -120 13 -14 42 -46 65 -71 81 -87
163 -176 262 -285 55 -60 114 -122 130 -138 43 -42 120 -78 179 -84 28 -2 416
-5 861 -6 l810 -2 68 -23 c193 -66 334 -226 374 -429 7 -36 10 -402 3 -412 -3
-4 -1035 -7 -2295 -6 -2151 2 -2293 3 -2345 19 -58 19 -153 68 -183 95 -89 81
-136 145 -167 227 -11 30 -70 219 -131 421 -61 203 -128 427 -150 498 -42 136
-79 263 -79 268 0 1 38 2 85 2 l84 0 68 -81 c37 -44 86 -102 108 -129 213
-258 302 -360 336 -385 85 -61 86 -61 645 -58 l509 3 50 27 c114 61 180 164
184 287 2 66 -6 94 -129 463 -73 216 -135 402 -140 413 -5 11 -15 41 -24 68
l-15 47 83 0 84 0 96 -103z"/>
<path d="M1910 1414 c-108 -18 -185 -78 -237 -184 -39 -76 -39 -189 -2 -270
45 -97 138 -170 240 -188 24 -4 946 -7 2049 -6 l2005 1 56 22 c170 65 254 252
190 421 -35 94 -125 175 -221 200 -63 17 -3982 20 -4080 4z"/>
</g>
</svg>
