<svg id="Layer_3" data-name="Layer 3" xmlns="http://www.w3.org/2000/svg" viewBox="0 0 21.53 19"><path d="M21,19H.5a.5.5,0,0,1-.5-.5V2.17a.5.5,0,0,1,.5-.5H21a.5.5,0,0,1,.5.5V18.5a.5.5,0,0,1-.5.5ZM1,18H20.53V2.67H1V18Z" fill="currentColor"/><path d="M17.19,4.33a.5.5,0,0,1-.5-.5V.5a.5.5,0,0,1,.5-.5.5.5,0,0,1,.5.5V3.83a.5.5,0,0,1-.5.5Z" fill="currentColor"/><path d="M4.44,4.33a.5.5,0,0,1-.5-.5V.5a.5.5,0,0,1,.5-.5.5.5,0,0,1,.5.5V3.83a.5.5,0,0,1-.5.5Z" fill="currentColor"/><path d="M21,8.07H.64a.5.5,0,0,1,0-1H21a.5.5,0,0,1,0,1Z" fill="currentColor"/><polygon points="5.18 10.1 3.24 10.1 3.24 12.04 5.18 12.04 5.18 10.1 5.18 10.1" fill="currentColor"/><polygon points="8.54 10.1 6.6 10.1 6.6 12.04 8.54 12.04 8.54 10.1 8.54 10.1" fill="currentColor"/><polygon points="11.89 10.1 9.95 10.1 9.95 12.04 11.89 12.04 11.89 10.1 11.89 10.1" fill="currentColor"/><polygon points="15.25 10.1 13.31 10.1 13.31 12.04 15.25 12.04 15.25 10.1 15.25 10.1" fill="currentColor"/><polygon points="18.61 10.1 16.67 10.1 16.67 12.04 18.61 12.04 18.61 10.1 18.61 10.1" fill="currentColor"/><polygon points="5.18 13.22 3.24 13.22 3.24 15.15 5.18 15.15 5.18 13.22 5.18 13.22" fill="currentColor"/><polygon points="8.54 13.22 6.6 13.22 6.6 15.15 8.54 15.15 8.54 13.22 8.54 13.22" fill="currentColor"/><polygon points="11.89 13.22 9.95 13.22 9.95 15.15 11.89 15.15 11.89 13.22 11.89 13.22" fill="currentColor"/><polygon points="15.25 13.22 13.31 13.22 13.31 15.15 15.25 15.15 15.25 13.22 15.25 13.22" fill="currentColor"/><polygon points="18.61 13.22 16.67 13.22 16.67 15.15 18.61 15.15 18.61 13.22 18.61 13.22" fill="currentColor"/></svg>