<svg xmlns="http://www.w3.org/2000/svg" xmlns:xlink="http://www.w3.org/1999/xlink" aria-hidden="true" role="img" class="iconify iconify--ph" width="32" height="32" preserveAspectRatio="xMidYMid meet" viewBox="0 0 256 256"><path d="M208 36H48a20.022 20.022 0 0 0-20 20v58.667c0 92.201 78.109 122.77 93.767 127.96a19.666 19.666 0 0 0 12.465 0C149.89 237.438 228 206.869 228 114.668V56a20.022 20.022 0 0 0-20-20zm-4 78.667c0 73.403-60.545 99.317-76 104.73c-15.456-5.413-76-31.327-76-104.73V60h152zM116 132V92a12 12 0 1 1 24 0v40a12 12 0 1 1-24 0zm.685 51.313A16 16 0 1 1 144 172v.005a16 16 0 0 1-27.315 11.308z" fill="#D97706"></path></svg>