<svg xmlns="http://www.w3.org/2000/svg" xmlns:xlink="http://www.w3.org/1999/xlink" aria-hidden="true" role="img" class="iconify iconify--ph" width="32" height="32" preserveAspectRatio="xMidYMid meet" viewBox="0 0 256 256"><path d="M128 26a102.028 102.028 0 0 0-89.039 151.795l-8.775 30.711a14.001 14.001 0 0 0 17.309 17.307l30.712-8.774A102.007 102.007 0 1 0 128 26zm0 192a89.884 89.884 0 0 1-45.93-12.586a6 6 0 0 0-4.716-.612l-33.156 9.473a2 2 0 0 1-2.473-2.473l9.473-33.156a6.002 6.002 0 0 0-.613-4.714A90.012 90.012 0 1 1 128 218zm-38-90.003a10 10 0 1 1-10-10a10.012 10.012 0 0 1 10 10zm48 0a10 10 0 1 1-10-10a10.012 10.012 0 0 1 10 10zm48 0a10 10 0 1 1-10-10a10.012 10.012 0 0 1 10 10z" fill="currentColor"></path></svg>