<svg id="Izolovaný_režim" data-name="Izolovaný režim" xmlns="http://www.w3.org/2000/svg" viewBox="0 0 22.29 21.78"><path d="M4.05,8.11a.47.47,0,0,1,.1-.3.51.51,0,0,1,.7-.11l6.3,4.59,6.3-4.59a.5.5,0,0,1,.59.81l-6.6,4.8a.49.49,0,0,1-.59,0L4.26,8.51a.49.49,0,0,1-.21-.4Z" fill="currentColor"/><path d="M10.65,12.91V.5a.5.5,0,0,1,.5-.5.5.5,0,0,1,.5.5V12.91a.51.51,0,0,1-.5.5.5.5,0,0,1-.5-.5Z" fill="currentColor"/><path d="M22.29,21.28a.5.5,0,0,1-.5.5H.5a.5.5,0,0,1,0-1H21.79a.5.5,0,0,1,.5.5Z" fill="currentColor"/><path d="M22.29,7.9V21.28a.5.5,0,0,1-.5.5.5.5,0,0,1-.5-.5V7.9a.5.5,0,0,1,.5-.5.5.5,0,0,1,.5.5Z" fill="currentColor"/><path d="M1,7.9V21.28a.5.5,0,0,1-.5.5.5.5,0,0,1-.5-.5V7.9a.5.5,0,0,1,.5-.5.5.5,0,0,1,.5.5Z" fill="currentColor"/></svg>