<svg xmlns="http://www.w3.org/2000/svg" xmlns:xlink="http://www.w3.org/1999/xlink" aria-hidden="true" role="img" class="iconify iconify--ph" width="32" height="32" preserveAspectRatio="xMidYMid meet" viewBox="0 0 256 256"><path d="M214.008 88a5.977 5.977 0 0 0-1.844-4.322l-55.921-55.92c-.012-.012-.024-.021-.035-.033a6.062 6.062 0 0 0-.4-.361c-.038-.032-.08-.06-.12-.09c-.115-.09-.23-.18-.352-.26c-.036-.024-.073-.044-.11-.067a6.054 6.054 0 0 0-.395-.237c-.025-.013-.053-.024-.078-.037a6.066 6.066 0 0 0-.453-.215c-.017-.007-.035-.012-.052-.018a5.904 5.904 0 0 0-.5-.18l-.051-.013a5.967 5.967 0 0 0-.517-.13c-.044-.009-.09-.012-.136-.02a5.944 5.944 0 0 0-.445-.067A5.998 5.998 0 0 0 152 26H55.992a14.016 14.016 0 0 0-14 14v176a14.016 14.016 0 0 0 14 14H200a14.016 14.016 0 0 0 14-14V88.16c.001-.054.008-.106.008-.16zM158 46.485L193.515 82H158zM200 218H55.992a2.003 2.003 0 0 1-2-2V40a2.002 2.002 0 0 1 2-2H146v50a6 6 0 0 0 6 6h50v122a2.003 2.003 0 0 1-2 2zm-39.757-66.243a6 6 0 0 1 0 8.486l-27.997 27.996a6.019 6.019 0 0 1-.927.758c-.02.014-.042.025-.063.038a5.96 5.96 0 0 1-.975.513l-.076.028a5.952 5.952 0 0 1-1.042.31l-.059.008a5.811 5.811 0 0 1-2.208 0c-.02-.003-.04-.005-.059-.009a5.952 5.952 0 0 1-1.042-.309c-.025-.01-.05-.017-.076-.028a5.96 5.96 0 0 1-.975-.513c-.02-.013-.042-.024-.063-.038a6.038 6.038 0 0 1-.927-.758l-27.997-27.996a6 6 0 0 1 8.486-8.486L122 169.515V120a6 6 0 0 1 12 0v49.515l17.757-17.758a6 6 0 0 1 8.486 0z" fill="currentColor"></path></svg>