<svg id="Layer_3" data-name="Layer 3" xmlns="http://www.w3.org/2000/svg" viewBox="0 0 24.28 22.77"><path d="M4.69,22.35A2.33,2.33,0,0,1,3,21.69a2.4,2.4,0,0,1-.63-2.08,3.91,3.91,0,0,1,1.12-2.16l4.92-4.91a.51.51,0,0,1,.71,0l3,3a.52.52,0,0,1,.14.36.5.5,0,0,1-.14.35L7.26,21.19a3.68,3.68,0,0,1-2.57,1.16Zm4.1-8.75L4.23,18.16a2.88,2.88,0,0,0-.84,1.59A1.42,1.42,0,0,0,3.74,21a1.34,1.34,0,0,0,1,.36,2.81,2.81,0,0,0,1.87-.86l4.56-4.56L8.79,13.6Z" fill="currentColor"/><path d="M21.11,5.54a1.93,1.93,0,0,1-1.36-3.29L21.42.58a.5.5,0,0,1,.7,0l2,2a.5.5,0,0,1,0,.7L22.47,5a1.93,1.93,0,0,1-1.36.57Zm.66-3.9L20.45,3a.92.92,0,0,0,0,1.3.94.94,0,0,0,1.3,0L23.08,3,21.77,1.64Z" fill="currentColor"/><path d="M14.6,10.61a.47.47,0,0,1-.35-.14.5.5,0,0,1,0-.71l5.5-5.5a.5.5,0,0,1,.71.71L15,10.47a.5.5,0,0,1-.36.14Z" fill="currentColor"/><path d="M19.41,22.77h0a3.32,3.32,0,0,1-2.36-1L7.29,12A6.08,6.08,0,0,1,.38,4a.52.52,0,0,1,.37-.32.53.53,0,0,1,.46.14L4.1,6.67l2-.55.54-2L3.77,1.21A.53.53,0,0,1,3.63.75.51.51,0,0,1,4,.39,6,6,0,0,1,6.08,0a6,6,0,0,1,4.3,1.78A6.09,6.09,0,0,1,12,7.3l9.75,9.75a3.3,3.3,0,0,1,1,2.37,3.36,3.36,0,0,1-3.36,3.35ZM7.45,11a.55.55,0,0,1,.36.15l9.94,9.95a2.37,2.37,0,0,0,1.66.69h0a2.36,2.36,0,0,0,2.36-2.35,2.34,2.34,0,0,0-.69-1.66l-9.95-10A.48.48,0,0,1,11,7.33,5.08,5.08,0,0,0,5.07,1.1L7.58,3.6a.51.51,0,0,1,.12.49L7,6.66A.54.54,0,0,1,6.66,7l-2.58.69a.5.5,0,0,1-.48-.13L1.1,5.08A5.07,5.07,0,0,0,7.33,11l.12,0Z" fill="currentColor"/><path d="M19.27,18.37a.83.83,0,1,0,0,1.66.83.83,0,0,0,0-1.66Z" fill="currentColor"/></svg>