<svg id="Layer_3" data-name="Layer 3" xmlns="http://www.w3.org/2000/svg" viewBox="0 0 22.66 22.79"><path d="M21.47,15.63a25,25,0,0,0-5.4-1.74l-.27,0s-1.09,0-1.44.55l-1.12,1.77c-.17.28-.84.25-1.32-.11a24.43,24.43,0,0,1-2.81-2.39A26.76,26.76,0,0,1,6.7,10.87a1.42,1.42,0,0,1-.29-1,.44.44,0,0,1,.19-.3L8.37,8.42a1.94,1.94,0,0,0,.52-1.73C8.4,4.82,7.71,2.85,7.17,1.35,7,.84,6.11.56,5.58.56a1.13,1.13,0,0,0-.47.08A11.47,11.47,0,0,0,1,3.29a11.8,11.8,0,0,0-.93,1L0,4.47v.17A17.68,17.68,0,0,0,5.55,17.31a17.76,17.76,0,0,0,12.28,5.48h.49l.13-.1c.37-.3.73-.61,1.06-.93a11.67,11.67,0,0,0,2.64-4.07A2,2,0,0,0,21.47,15.63Zm-.25,1.69A10.83,10.83,0,0,1,18.8,21a10.18,10.18,0,0,1-.84.75h-.13A16.75,16.75,0,0,1,6.26,16.61l-.07-.08A16.66,16.66,0,0,1,1,4.83,10.18,10.18,0,0,1,1.75,4,10.73,10.73,0,0,1,5.47,1.57h.11a3.88,3.88,0,0,1,.65.13C6.76,3.17,7.44,5.11,7.92,7a1.74,1.74,0,0,1-.09.63L6.07,8.7a1.43,1.43,0,0,0-.64,1,2.35,2.35,0,0,0,.47,1.8A26.56,26.56,0,0,0,8.4,14.4a27.48,27.48,0,0,0,2.93,2.49,2,2,0,0,0,2.76-.17L15.16,15a1.41,1.41,0,0,1,.7-.14A24.13,24.13,0,0,1,21,16.51,1.31,1.31,0,0,1,21.22,17.32Z" fill="currentColor"/><path d="M11.5,0a.5.5,0,0,0-.5.5.5.5,0,0,0,.5.5A10.18,10.18,0,0,1,21.66,11.17a.51.51,0,0,0,.5.5.5.5,0,0,0,.5-.5A11.18,11.18,0,0,0,11.5,0Z" fill="currentColor"/><path d="M11.49,4.13a7.05,7.05,0,0,1,7,7,.5.5,0,0,0,.5.5.51.51,0,0,0,.5-.5,8.05,8.05,0,0,0-8-8,.51.51,0,0,0-.5.5A.5.5,0,0,0,11.49,4.13Z" fill="currentColor"/><path d="M11.49,7.43a3.75,3.75,0,0,1,3.74,3.74.5.5,0,0,0,.5.5.51.51,0,0,0,.5-.5,4.75,4.75,0,0,0-4.74-4.74.51.51,0,0,0-.5.5A.5.5,0,0,0,11.49,7.43Z" fill="currentColor"/></svg>