<svg xmlns="http://www.w3.org/2000/svg" xmlns:xlink="http://www.w3.org/1999/xlink" aria-hidden="true" role="img" class="iconify iconify--majesticons" width="32" height="32" preserveAspectRatio="xMidYMid meet" viewBox="0 0 24 24"><g fill="currentColor"><path d="M6 3a3 3 0 0 0-3 3v12a3 3 0 0 0 3 3h5a1 1 0 1 0 0-2H6a1 1 0 0 1-1-1V6a1 1 0 0 1 1-1h5a1 1 0 1 0 0-2H6z"></path><path d="M15.293 7.293a1 1 0 0 1 1.414 0l4 4a1 1 0 0 1 0 1.414l-4 4a1 1 0 0 1-1.414-1.414L17.586 13H10a1 1 0 1 1 0-2h7.586l-2.293-2.293a1 1 0 0 1 0-1.414z"></path></g></svg>