<svg width="43" height="41" viewBox="0 0 43 41" fill="none" xmlns="http://www.w3.org/2000/svg">
<path d="M5.45609 37.9528C4.21874 37.9528 3.10596 37.5626 3.10596 36.6908C3.10596 36.2175 3.53778 35.8273 4.10248 35.7691C3.67896 35.6446 3.44644 35.3623 3.44644 34.9804C3.44644 34.5901 3.71218 34.3078 4.11079 34.1418C3.77031 33.8844 3.57931 33.4941 3.57931 33.0209C3.57931 32.0992 4.335 31.5014 5.42288 31.5014C5.93775 31.5014 6.38618 31.6426 6.71836 31.8917C6.94257 31.4599 7.43253 31.0697 8.08858 31.161L8.17992 31.9083C7.77301 31.8252 7.25814 31.9498 7.03392 32.2238C7.1917 32.448 7.26644 32.7137 7.26644 33.0126C7.26644 33.9425 6.49414 34.532 5.42288 34.532C5.06579 34.532 4.74192 34.4739 4.46787 34.3493C4.29348 34.4407 4.15231 34.5818 4.15231 34.8143C4.15231 35.0385 4.3267 35.1962 4.73361 35.1962H6.43601C7.40762 35.1962 8.01384 35.6778 8.01384 36.3919C8.01384 37.5128 6.70175 37.9528 5.45609 37.9528ZM5.45609 37.3882C6.44431 37.3882 7.20831 37.1142 7.20831 36.4998C7.20831 36.0681 6.77649 35.9186 6.2367 35.9186H4.82496C4.34331 35.9186 3.90318 36.1511 3.90318 36.5828C3.90318 37.1474 4.60074 37.3882 5.45609 37.3882ZM5.42288 32.0743C4.85818 32.0743 4.40974 32.4563 4.40974 33.0292C4.40974 33.6104 4.85818 33.9923 5.42288 33.9923C5.98757 33.9923 6.4277 33.6104 6.4277 33.0292C6.4277 32.4563 5.98757 32.0743 5.42288 32.0743Z" fill="black"/>
<path d="M9.91541 33.8346V36.1096H9.06836V31.6343H9.91541V32.7137C10.1064 32.1325 10.6047 31.518 11.4185 31.518C12.2821 31.518 12.7472 32.1574 12.7472 32.9711C12.7472 33.0541 12.7389 33.1869 12.7057 33.27L11.9749 33.4941C11.9915 33.4111 12.0164 33.2866 12.0164 33.1869C12.0164 32.6472 11.7839 32.2653 11.1943 32.2653C10.4967 32.257 9.91541 32.9628 9.91541 33.8346Z" fill="black"/>
<path d="M15.795 36.2341C14.4829 36.2341 13.4365 35.2627 13.4365 33.8761C13.4365 32.4812 14.4829 31.5097 15.795 31.5097C17.1154 31.5097 18.1617 32.4812 18.1617 33.8761C18.1617 35.2627 17.1154 36.2341 15.795 36.2341ZM15.795 35.5533C16.7084 35.5533 17.2814 34.8807 17.2814 33.8761C17.2814 32.8631 16.7084 32.1823 15.795 32.1823C14.8898 32.1823 14.3168 32.8548 14.3168 33.8761C14.3168 34.8807 14.8898 35.5533 15.795 35.5533Z" fill="black"/>
<path d="M22.6708 31.6343H23.5179V36.1096H22.6708V35.1962C22.4549 35.7608 21.8487 36.2341 21.0598 36.2341C19.8806 36.2341 19.3989 35.4536 19.3989 34.4241V31.6343H20.246V34.2995C20.246 35.0551 20.6114 35.5284 21.3421 35.5284C22.0978 35.5284 22.6625 34.9306 22.6625 34.067V31.6343H22.6708Z" fill="black"/>
<path d="M25.9926 37.8283H25.1455V31.6259H25.9926V32.5974C26.2168 31.9913 26.7649 31.5014 27.6036 31.5014C28.9323 31.5014 29.7295 32.5476 29.7295 33.8677C29.7295 35.1796 28.9406 36.2258 27.6036 36.2258C26.7649 36.2258 26.2168 35.7442 25.9926 35.1381V37.8283ZM25.9676 33.9674C25.9676 34.9554 26.6154 35.5782 27.3794 35.5782C28.3012 35.5782 28.841 34.9056 28.841 33.876C28.841 32.8465 28.3012 32.1739 27.3794 32.1739C26.6154 32.1739 25.9676 32.7967 25.9676 33.7681V33.9674Z" fill="black"/>
<path d="M3.75391 14.0735V3.83597H4.80856V8.30296H11.5434V3.83597H12.5981V14.0735H11.5434V9.19968H4.80856V14.0735H3.75391Z" fill="black"/>
<path d="M27.554 14.5053C24.5644 14.5053 22.4136 12.3465 22.4136 9.19136C22.4136 6.03624 24.5561 3.87747 27.554 3.87747C30.5519 3.87747 32.6944 6.03624 32.6944 9.19136C32.6944 12.3465 30.5435 14.5053 27.554 14.5053ZM27.554 4.76589C25.1457 4.76589 23.5181 6.4763 23.5181 9.19136C23.5181 11.9064 25.1457 13.6168 27.554 13.6168C29.9622 13.6168 31.5899 11.9064 31.5899 9.19136C31.5899 6.4763 29.9539 4.76589 27.554 4.76589Z" fill="black"/>
<path d="M21.1844 13.2764V14.1482H14.8897V13.3844L17.3727 11.2173C19.208 9.61481 19.8889 8.92567 19.8889 7.77986C19.8889 6.63405 18.9838 6.04454 17.8627 6.04454C16.4592 6.04454 15.77 6.86653 15.77 8.24482C15.77 8.51052 15.8115 8.78451 15.9278 9.0253L14.8814 8.98379C14.7901 8.69318 14.7485 8.42749 14.7485 8.15349C14.7485 6.33514 15.9859 5.17273 17.8627 5.17273C19.9222 5.17273 20.9353 6.38496 20.9353 7.8878C20.9353 9.45705 19.5235 10.6942 18.2862 11.6989L16.4509 13.2764H21.1844Z" fill="black"/>
<rect x="0.5" y="0.5" width="41.9293" height="39.9645" stroke="black"/>
</svg>
