<svg xmlns="http://www.w3.org/2000/svg" version="1.1" xmlns:xlink="http://www.w3.org/1999/xlink" xmlns:svgjs="http://svgjs.dev/svgjs" width="1000" height="1000" viewBox="0 0 1000 1000"><rect width="1000" height="1000" fill="#000000"></rect><g transform="matrix(0.7,0,0,0.7,149.5757672113453,342.9070983206364)"><svg viewBox="0 0 396 178" data-background-color="#ffffff" preserveAspectRatio="xMidYMid meet" height="449" width="1000" xmlns="http://www.w3.org/2000/svg" xmlns:xlink="http://www.w3.org/1999/xlink"><g id="tight-bounds" transform="matrix(1,0,0,1,0.23999454901036188,-0.032336942644860756)"><svg viewBox="0 0 395.52 178.06467388528972" height="178.06467388528972" width="395.52"><g><svg viewBox="0 0 395.52 178.06467388528972" height="178.06467388528972" width="395.52"><g><svg viewBox="0 0 395.52 178.06467388528972" height="178.06467388528972" width="395.52"><g transform="matrix(1,0,0,1,0,124.25367834294204)"><svg viewBox="0 0 395.52 53.81099554234768" height="53.81099554234768" width="395.52"><g><svg viewBox="0 0 395.52 53.81099554234768" height="53.81099554234768" width="395.52"><g><svg viewBox="0 0 395.52 53.81099554234768" height="53.81099554234768" width="395.52"><g transform="matrix(1,0,0,1,0,0)"><svg width="395.52" viewBox="4.849999904632568 -36.22999954223633 269.17999267578125 36.630001068115234" height="53.81099554234768" data-palette-color="#fce44d"><path d="M15.43-13.4L9.68-13.4 9.68 0 4.85 0 4.85-35.83 15.43-35.83Q18.82-35.83 21.34-35.04 23.85-34.25 25.5-32.8 27.15-31.35 27.96-29.3 28.78-27.25 28.78-24.73L28.78-24.73Q28.78-22.23 27.9-20.15 27.03-18.07 25.34-16.57 23.65-15.08 21.15-14.24 18.65-13.4 15.43-13.4L15.43-13.4ZM9.68-32L9.68-17.25 15.43-17.25Q17.5-17.25 19.09-17.8 20.68-18.35 21.75-19.34 22.83-20.33 23.38-21.7 23.93-23.08 23.93-24.73L23.93-24.73Q23.93-28.15 21.81-30.08 19.7-32 15.43-32L15.43-32 9.68-32ZM40.65-35.83L40.65 0 35.8 0 35.8-35.83 40.65-35.83ZM55.1-35.83L55.1-4.08 70.59-4.08 70.59 0 50.25 0 50.25-35.83 55.1-35.83ZM107.22-17.9L107.22-17.9Q107.22-13.88 105.94-10.51 104.67-7.15 102.34-4.73 100.02-2.3 96.75-0.96 93.49 0.38 89.54 0.38L89.54 0.38Q85.59 0.38 82.34-0.96 79.09-2.3 76.77-4.73 74.44-7.15 73.17-10.51 71.89-13.88 71.89-17.9L71.89-17.9Q71.89-21.93 73.17-25.29 74.44-28.65 76.77-31.09 79.09-33.52 82.34-34.88 85.59-36.23 89.54-36.23L89.54-36.23Q93.49-36.23 96.75-34.88 100.02-33.52 102.34-31.09 104.67-28.65 105.94-25.29 107.22-21.93 107.22-17.9ZM102.24-17.9L102.24-17.9Q102.24-21.2 101.34-23.83 100.44-26.45 98.79-28.26 97.14-30.08 94.79-31.05 92.44-32.02 89.54-32.02L89.54-32.02Q86.67-32.02 84.32-31.05 81.97-30.08 80.31-28.26 78.64-26.45 77.74-23.83 76.84-21.2 76.84-17.9L76.84-17.9Q76.84-14.6 77.74-11.99 78.64-9.38 80.31-7.56 81.97-5.75 84.32-4.79 86.67-3.83 89.54-3.83L89.54-3.83Q92.44-3.83 94.79-4.79 97.14-5.75 98.79-7.56 100.44-9.38 101.34-11.99 102.24-14.6 102.24-17.9ZM107.74-35.83L135.79-35.83 135.79-31.75 124.22-31.75 124.22 0 119.37 0 119.37-31.75 107.74-31.75 107.74-35.83ZM152.74-35.83L167.06 0 163.31 0Q162.66 0 162.26-0.33 161.86-0.65 161.66-1.15L161.66-1.15 158.31-9.8 142.24-9.8 138.89-1.15Q138.71-0.7 138.29-0.35 137.86 0 137.24 0L137.24 0 133.49 0 147.81-35.83 152.74-35.83ZM149.21-27.85L143.59-13.3 156.96-13.3 151.34-27.88Q150.79-29.23 150.26-31.25L150.26-31.25Q149.99-30.23 149.73-29.36 149.46-28.5 149.21-27.85L149.21-27.85ZM176.91-35.83L176.91-20.13 178.74-20.13Q179.69-20.13 180.25-20.36 180.81-20.6 181.31-21.18L181.31-21.18 193.24-34.68Q193.79-35.3 194.3-35.56 194.81-35.83 195.61-35.83L195.61-35.83 199.74-35.83 186.09-20.4Q185.56-19.83 185.1-19.43 184.64-19.03 184.11-18.78L184.11-18.78Q184.81-18.55 185.34-18.1 185.86-17.65 186.44-16.98L186.44-16.98 200.69 0 196.49 0Q196.01 0 195.69-0.08 195.36-0.15 195.12-0.28 194.89-0.4 194.69-0.6 194.49-0.8 194.29-1.03L194.29-1.03 181.91-15.25Q181.64-15.55 181.4-15.76 181.16-15.98 180.85-16.13 180.54-16.28 180.12-16.34 179.71-16.4 179.11-16.4L179.11-16.4 176.91-16.4 176.91 0 172.09 0 172.09-35.83 176.91-35.83ZM203.48-2.75L203.48-2.75Q203.48-3.4 203.72-3.98 203.96-4.55 204.37-4.98 204.78-5.4 205.36-5.65 205.93-5.9 206.58-5.9L206.58-5.9Q207.23-5.9 207.81-5.65 208.38-5.4 208.81-4.98 209.23-4.55 209.47-3.98 209.71-3.4 209.71-2.75L209.71-2.75Q209.71-2.08 209.47-1.51 209.23-0.95 208.81-0.53 208.38-0.1 207.81 0.14 207.23 0.38 206.58 0.38L206.58 0.38Q205.93 0.38 205.36 0.14 204.78-0.1 204.37-0.53 203.96-0.95 203.72-1.51 203.48-2.08 203.48-2.75ZM240.08-7.4L240.08-7.4Q240.48-7.4 240.81-7.08L240.81-7.08 242.71-5Q240.51-2.45 237.37-1.03 234.23 0.4 229.81 0.4L229.81 0.4Q225.93 0.4 222.78-0.94 219.63-2.27 217.41-4.69 215.18-7.1 213.96-10.48 212.73-13.85 212.73-17.9L212.73-17.9Q212.73-21.95 214.04-25.33 215.36-28.7 217.73-31.13 220.11-33.55 223.42-34.89 226.73-36.23 230.73-36.23L230.73-36.23Q234.68-36.23 237.54-35 240.41-33.77 242.63-31.68L242.63-31.68 241.06-29.45Q240.88-29.2 240.66-29.04 240.43-28.88 240.01-28.88L240.01-28.88Q239.68-28.88 239.32-29.11 238.96-29.35 238.46-29.7 237.96-30.05 237.28-30.45 236.61-30.85 235.68-31.2 234.76-31.55 233.53-31.79 232.31-32.02 230.71-32.02L230.71-32.02Q227.83-32.02 225.44-31.04 223.06-30.05 221.33-28.23 219.61-26.4 218.64-23.78 217.68-21.15 217.68-17.9L217.68-17.9Q217.68-14.55 218.64-11.93 219.61-9.3 221.27-7.49 222.93-5.68 225.21-4.73 227.48-3.78 230.11-3.78L230.11-3.78Q231.71-3.78 232.98-3.96 234.26-4.15 235.34-4.55 236.43-4.95 237.37-5.56 238.31-6.18 239.26-7.03L239.26-7.03Q239.68-7.4 240.08-7.4ZM247.83-35.83L274.03-35.83 274.03-34.02Q274.03-33.18 273.5-32.43L273.5-32.43 253.23-3.95 273.68-3.95 273.68 0 246.88 0 246.88-1.9Q246.88-2.65 247.35-3.33L247.35-3.33 267.65-31.88 247.83-31.88 247.83-35.83Z" opacity="1" transform="matrix(1,0,0,1,0,0)" fill="#ffffff" class="undefined-text-0" data-fill-palette-color="primary" id="text-0"></path></svg></g></svg></g></svg></g></svg></g><g transform="matrix(1,0,0,1,42.66600186641122,0)"><svg viewBox="0 0 310.18799626717754 111.55019375928677" height="111.55019375928677" width="310.18799626717754"><g><svg xmlns="http://www.w3.org/2000/svg" xmlns:xlink="http://www.w3.org/1999/xlink" version="1.1" x="8" y="0" viewBox="0 31.04199981689453 100.00000762939453 37.917999267578125" enable-background="new 0 0 100 100" xml:space="preserve" width="294.18799626717754" height="111.55019375928677" class="icon-icon-0" data-fill-palette-color="accent" id="icon-0"><path d="M23.545 51.412c6.389-0.23 12.777-0.461 19.166-0.69-1.191-1.97-1.489-3.692-3.767-3.989-3.408-0.443-6.816-0.888-10.225-1.332-6.611-0.861-13.224-1.723-19.836-2.584C9.476 43.773 18.728 51.585 23.545 51.412z" fill="#ffffff" data-fill-palette-color="accent"></path><path d="M0 31.042c2.07 3.421 12.547 10.877 15.536 11.261 8.17 1.052 16.339 2.103 24.509 3.153-1.6-2.644-1.971-4.408-4.861-5.167-4.198-1.104-8.397-2.208-12.596-3.311C15.058 35 7.529 33.021 0 31.042z" fill="#ffffff" data-fill-palette-color="accent"></path><path d="M29.752 57.642c4.909-1.047 9.818-2.094 14.729-3.141-0.956-1.577-0.959-2.526-2.747-2.446-2.903 0.129-5.806 0.259-8.708 0.388-5.348 0.238-10.695 0.478-16.042 0.716C17.584 53.803 25.901 58.462 29.752 57.642z" fill="#ffffff" data-fill-palette-color="accent"></path><path d="M41.337 68.959c2.699-1.754 3.424-3.641 4.959-6.51 1.722-3.217 0.593-3.697-1.33-6.881-0.196-0.324-2.754 0.109-3.042 0.427-0.352 0.386-0.117 2.571-0.139 3.062C41.636 62.357 41.486 65.658 41.337 68.959z" fill="#ffffff" data-fill-palette-color="accent"></path><path d="M40.709 56.34c-1.789 0.382-4.057 0.091-4.513 1.994-0.647 2.704-1.295 5.409-1.942 8.113C38.613 65.406 40.558 60.175 40.709 56.34z" fill="#ffffff" data-fill-palette-color="accent"></path><path d="M35.201 57.601c-4.313 0.921-4.223 2.174-6.072 6.214C32.062 63.536 34.798 60.345 35.201 57.601z" fill="#ffffff" data-fill-palette-color="accent"></path><path d="M91.116 42.816c-6.612 0.861-13.225 1.723-19.837 2.584-3.408 0.444-6.816 0.889-10.225 1.332-2.276 0.297-2.575 2.02-3.766 3.989 6.389 0.229 12.777 0.46 19.166 0.69C81.271 51.585 90.523 43.773 91.116 42.816z" fill="#ffffff" data-fill-palette-color="accent"></path><path d="M77.413 36.978c-4.199 1.104-8.397 2.208-12.597 3.311-2.89 0.759-3.262 2.523-4.86 5.167 8.169-1.051 16.339-2.102 24.508-3.153 2.989-0.384 13.467-7.84 15.536-11.261C92.471 33.021 84.942 35 77.413 36.978z" fill="#ffffff" data-fill-palette-color="accent"></path><path d="M83.017 53.158c-5.347-0.238-10.694-0.478-16.042-0.716-2.903-0.129-5.806-0.259-8.709-0.388-1.788-0.08-1.79 0.869-2.746 2.446 4.909 1.047 9.818 2.094 14.729 3.141C74.098 58.462 82.415 53.803 83.017 53.158z" fill="#ffffff" data-fill-palette-color="accent"></path><path d="M58.215 59.058c-0.022-0.491 0.213-2.677-0.139-3.062-0.289-0.317-2.846-0.751-3.042-0.427-1.924 3.184-3.052 3.664-1.33 6.881 1.535 2.869 2.259 4.756 4.959 6.51C58.514 65.658 58.364 62.357 58.215 59.058z" fill="#ffffff" data-fill-palette-color="accent"></path><path d="M65.745 66.447c-0.647-2.704-1.295-5.409-1.942-8.113-0.455-1.903-2.724-1.612-4.512-1.994C59.441 60.175 61.387 65.406 65.745 66.447z" fill="#ffffff" data-fill-palette-color="accent"></path><path d="M70.871 63.814c-1.851-4.04-1.76-5.293-6.072-6.214C65.202 60.345 67.938 63.536 70.871 63.814z" fill="#ffffff" data-fill-palette-color="accent"></path></svg></g></svg></g><g><rect width="42.66600186641122" height="4.852731110956315" y="105.69746264833046" x="352.8539981335888" fill="#ffffff" data-fill-palette-color="accent"></rect><rect width="42.66600186641122" height="4.852731110956315" y="105.69746264833046" x="0" fill="#ffffff" data-fill-palette-color="accent"></rect><rect width="42.66600186641122" height="4.852731110956315" y="95.99200042641783" x="352.8539981335888" fill="#ffffff" data-fill-palette-color="accent"></rect><rect width="42.66600186641122" height="4.852731110956315" y="95.99200042641783" x="0" fill="#ffffff" data-fill-palette-color="accent"></rect></g></svg></g></svg></g><defs></defs></svg><rect width="395.52" height="178.06467388528972" fill="none" stroke="none" visibility="hidden"></rect></g></svg></g></svg>