<svg id="Vrstva_1" data-name="Vrstva 1" xmlns="http://www.w3.org/2000/svg" viewBox="0 0 112.28 127.84"><path d="M56.14.05,0,0C1,25.66,2.51,58.74,3.6,73.84c2.88,40,33.6,54.21,52.54,54,18.94.24,49.66-14,52.54-54,1.09-15.1,2.62-48.18,3.6-73.84Z" fill="#2754a2"/><path d="M108.82,32.89a97.81,97.81,0,0,1-43.68,19s5.58-31,20.27-50.84L55.84,1.5l-28.9-.4C41.62,20.94,47.21,51.94,47.21,51.94a97.81,97.81,0,0,1-43.68-19L4.2,70.82l.07.23c.38.93,3.06,17.26,3.36,17.09C29,76.14,47.24,73.35,47.24,73.35s-.41,19.88-15.18,46.43c-1,1.77,8.67,3.45,10.75,5.2l12.83,1.47,15.44-2.55c-1.12-1.82,10.19-2.35,9.21-4.12C65.52,93.23,65.11,73.35,65.11,73.35s18.77,2.87,40.58,15.34Z" fill="#fff" fill-rule="evenodd"/><path d="M58,126.39s13.88-2.16,13-3.81A128.71,128.71,0,0,1,56.29,74h0A128.6,128.6,0,0,1,41.6,122.6c-.9,1.65,10.08,3.51,10.08,3.51Z" fill="#e84141"/><polygon points="24.11 50.2 26.48 58.83 35.13 56.57 28.85 62.93 35.13 69.3 26.48 67.04 24.11 75.66 21.73 67.04 13.08 69.3 19.36 62.93 13.08 56.57 21.73 58.83 24.11 50.2" fill="#e84141"/><polygon points="88.78 50.41 91.15 59.03 99.8 56.77 93.52 63.14 99.8 69.5 91.15 67.25 88.78 75.87 86.41 67.25 77.76 69.5 84.04 63.14 77.76 56.77 86.41 59.03 88.78 50.41" fill="#e84141"/><polygon points="56.32 9.95 58.7 18.57 67.35 16.32 61.07 22.68 67.35 29.05 58.7 26.79 56.32 35.41 53.95 26.79 45.3 29.05 51.58 22.68 45.3 16.32 53.95 18.57 56.32 9.95" fill="#e84141"/><path d="M56.14.05,0,0C1,25.66,2.51,58.74,3.6,73.84c2.88,40,33.6,54.21,52.54,54,18.94.24,49.66-14,52.54-54,1.09-15.1,2.62-48.18,3.6-73.84Zm50.37,73.38c-2.76,38.32-32.21,52-50.37,51.75C38,125.4,8.53,111.75,5.76,73.43,4.72,59,3.25,27.24,2.31,2.64H110C109,27.24,107.56,59,106.51,73.43Z" fill="#010101"/></svg>