<svg class="Love" xmlns="http://www.w3.org/2000/svg" viewBox="0 0 217.8 212.8">
<path fill="#E64C3C" d="M89.6 212c15.6-20.5 21.6-36.8 23.2-48.2 1.9-13.4-7.3-26.5-20.8-27.7-15.9-1.4-21.2 14.7-21.2 14.7s-13.3-10.4-25.7-.4C34.6 159 34.3 175 43.4 185c7.7 8.6 21.7 18.8 46.2 27z" opacity=".78"></path>
<path fill="#E64C3C" d="M148.7 166.2c14.6-4.1 23.1-9.6 27.9-14.4 5.6-5.6 5.9-15 0-20.3-6.9-6.3-15.1-.6-15.1-.6s-2.6-9.6-11.9-9.2c-7.9.3-13.8 7.7-13 15.6.6 6.7 3.5 16.4 12.1 28.9z" opacity=".51"></path>
<path fill="#E64C3C" d="M98.6 102c5.5-8.7 7.3-15.3 7.6-19.9.3-5.4-3.8-10.3-9.2-10.3-6.3 0-7.9 6.5-7.9 6.5s-5.6-3.7-10.2.7c-3.9 3.7-3.5 10.1.5 13.8 3.3 3.2 9.2 6.7 19.2 9.2z" opacity=".36"></path>
</svg>