<svg id="Izolovaný_režim" data-name="Izolovaný režim" xmlns="http://www.w3.org/2000/svg" viewBox="0 0 18.3 26.3"><path d="M17.65,13H9.8v-.7h2.85a.63.63,0,0,0,.33-.09l5-3a.65.65,0,0,0,0-1.12l-5-3A.63.63,0,0,0,12.65,5H9.8V4.19a2.15,2.15,0,1,0-1.3,0V5H.65A.65.65,0,0,0,0,5.65v6a.65.65,0,0,0,.65.65H8.5V13H5.65a.63.63,0,0,0-.33.09l-5,3a.65.65,0,0,0,0,1.12l5,3a.63.63,0,0,0,.33.09H8.5v5.35a.65.65,0,0,0,1.3,0V20.3h7.85a.65.65,0,0,0,.65-.65v-6A.65.65,0,0,0,17.65,13ZM9.15,1.3a.85.85,0,1,1-.85.85A.85.85,0,0,1,9.15,1.3ZM1.3,6.3H12.47l3.92,2.35L12.47,11H1.3ZM17,19H5.83L1.91,16.65,5.83,14.3H17Z" fill="currentColor"/></svg>