<svg id="Layer_1" data-name="Layer 1" xmlns="http://www.w3.org/2000/svg" viewBox="0 0 997 1311"><path d="M740,0H72.66A72.66,72.66,0,0,0,0,72.66V1238.34A72.66,72.66,0,0,0,72.66,1311H924.34A72.66,72.66,0,0,0,997,1238.34V257Z" fill="#e7e6e9"/><path d="M740,0V184.34A72.66,72.66,0,0,0,812.66,257H997Z" fill="#d3d3d3"/><path d="M289.38,865c-15.51,0-30.32-7.4-38.57-21-14.1-23.16-7.36-61.45,53.86-99.42q40-24.79,90.61-43.64c20.77-41.56,42-90.29,65.1-143.47q5.3-12.19,10.76-24.71Q455.33,506.2,448,480.61c-8.46-29.51-7.68-57,2.18-77.27,8.72-18,24.11-28.47,40.16-27.41C506,377,519,384.79,526.92,398c7.13,11.79,9.93,27.06,8.32,45.4-1.6,18.14-7.52,38.89-17.61,61.69h0q-5.58,12.59-11,24.95a359.55,359.55,0,0,0,31,39.37c34,37.81,62.87,64.28,86.1,82.74,31.53-2.93,55.94-3.85,68.6-4.14,28-.63,50.66,11.13,57.81,30,5.58,14.71.62,30.51-13.26,42.25-12.48,10.56-38,16.9-88.7-12.85a357.24,357.24,0,0,1-33.79-22.74c-21.48,2.24-45.77,5.42-71.55,9.94q-68.93,12.07-125.26,31.77c-32,62.06-64.21,108.56-102.69,131.56A49.78,49.78,0,0,1,289.38,865Zm82.71-120.56a437.83,437.83,0,0,0-50.86,26.9c-26.46,16.41-37.34,30.11-41.8,38.71-3.72,7.16-4.35,13.43-1.77,17.66,3.41,5.6,12.71,8.23,21.12,3.21C324.9,815.31,348.59,785.16,372.09,744.44Zm292.52-63.87c34,19.86,49.31,17.92,52,15.66,1.22-1,5.13-4.6,4.17-7.12-1.61-4.25-11.28-10.07-27.71-9.7C686.55,679.56,676.85,679.88,664.61,680.57ZM492,563.6q-1.41,3.24-2.81,6.46c-18.29,42.05-35.42,81.43-52.26,117a875.57,875.57,0,0,1,100.49-23.44c15-2.63,29.52-4.82,43.3-6.64a840.94,840.94,0,0,1-66.45-66.56Q502.15,576.94,492,563.6Zm-3.89-156.32c-2,0-6.19,2.6-9.68,9.79-6.38,13.14-6.47,33.15-.24,54.89A167,167,0,0,0,487.27,496l1.62-3.67c22.89-51.73,14.32-72.86,11.15-78.1-2.66-4.39-6.41-6.61-11.79-7Z" fill="#fa2007"/><path d="M72.66,1311H924.34A72.66,72.66,0,0,0,997,1238.34V974H0v264.34A72.66,72.66,0,0,0,72.66,1311Z" fill="#fa2007"/><path d="M334.09,1047h-84v184.32h30.16v-69.14h53.85a57.59,57.59,0,1,0,0-115.18Zm0,85H280.24v-54.86h53.85a27.43,27.43,0,0,1,0,54.86Z" fill="#e7e6e9"/><polygon points="746.92 1077.16 746.92 1047 653.08 1047 638 1047 622.92 1047 622.92 1231.32 653.08 1231.32 653.08 1162.18 727.65 1162.18 727.65 1132.02 653.08 1132.02 653.08 1077.16 746.92 1077.16" fill="#e7e6e9"/><path d="M496.81,1047H435.14v186h61.67a83.36,83.36,0,0,0,83.27-83.27v-19.46A83.36,83.36,0,0,0,496.81,1047Zm53.11,102.73a53.17,53.17,0,0,1-53.11,53.11H465.3V1077.16h31.51a53.17,53.17,0,0,1,53.11,53.11Z" fill="#e7e6e9"/></svg>