<svg xmlns="http://www.w3.org/2000/svg" xmlns:xlink="http://www.w3.org/1999/xlink" aria-hidden="true" role="img" class="iconify iconify--ph" width="32" height="32" preserveAspectRatio="xMidYMid meet" viewBox="0 0 256 256"><path d="M221.972 158.427l-46.838-20.073a15.952 15.952 0 0 0-15.179 1.394l-25.043 16.693a76.54 76.54 0 0 1-35.205-35.05l.002-.001l16.635-25.418a15.97 15.97 0 0 0 1.32-15.067L97.572 34.027a16.03 16.03 0 0 0-16.652-9.583A56.07 56.07 0 0 0 32 80c0 79.402 64.598 144 144 144a56.07 56.07 0 0 0 55.556-48.92a16.035 16.035 0 0 0-9.584-16.653zM176 208A128.145 128.145 0 0 1 48 80a40.017 40.017 0 0 1 34.866-39.669l20.09 46.878l-16.636 25.419a15.993 15.993 0 0 0-1.032 15.698a92.595 92.595 0 0 0 42.764 42.57a15.985 15.985 0 0 0 15.745-1.141l25.035-16.694l46.85 20.013A40.043 40.043 0 0 1 176 208zm-21.657-106.343a8.001 8.001 0 0 1 0-11.314L188.686 56H168a8 8 0 0 1 0-16h40c.06 0 .118.008.177.009c.202.004.405.011.607.03c.138.014.273.04.408.06c.123.018.245.031.367.055c.145.03.286.069.428.105c.11.028.222.052.331.085c.136.041.267.092.4.14c.114.04.23.079.342.125c.12.05.234.108.35.163c.121.057.243.11.361.173c.107.057.207.122.311.184c.122.072.244.141.362.22c.107.071.206.15.308.227c.108.08.218.154.322.24c.145.12.281.248.417.377c.055.051.113.097.166.15c.057.056.105.118.159.176c.125.132.25.265.367.406c.091.11.171.227.255.342c.07.095.145.188.211.286c.085.127.16.258.236.388c.056.095.115.186.167.284c.07.129.129.261.19.393c.05.106.102.21.147.317c.052.127.095.255.14.384c.043.119.088.235.125.355c.039.13.068.26.1.39c.031.124.066.245.09.37c.03.152.05.304.07.457c.015.106.035.21.046.317c.026.265.04.531.04.797V88a8 8 0 0 1-16 0V67.314l-34.343 34.343a8.002 8.002 0 0 1-11.314 0z" fill="currentColor"></path></svg>