<svg id="Calque_1" data-name="Calque 1" xmlns="http://www.w3.org/2000/svg" viewBox="0 0 476.49 348.76"><path d="M443,129.26V331.82c5.1,0,9.82-.13,14.53,0,6.51.23,10.53,3.66,10.46,8.61-.07,5.21-3.68,8-10.62,8.24-1.69.06-3.39,0-5.09,0H24c-2.26,0-4.53.12-6.78-.07-5.78-.46-8.7-3.33-8.69-8.31,0-4.77,3.1-8,8.75-8.41,5.05-.35,10.14-.08,16-.08V129.53H20.39c-2.83,0-5.66-.1-8.48,0-4.44.18-8.64-.26-10.93-4.73-2.51-4.91.27-8.57,3.18-12.22Q22.62,89.37,41,66.09c7.54-9.52,15.38-18.83,22.56-28.62C67.19,32.53,71.38,31,77.25,31c39.57.15,79.15-.07,118.72.16a16.55,16.55,0,0,0,13.31-5.67c6.76-7.21,13.86-14.12,20.94-21,6.12-6,9.67-6,15.8,0,6.89,6.69,13.92,13.28,20.32,20.43,4.21,4.69,8.83,6,14.92,5.95,38.44-.23,76.88,0,115.32-.24,7.77-.05,13,2.3,17.87,8.66,18.9,24.67,38.45,48.84,57.72,73.23,2.6,3.29,5.81,6.5,3.56,11.34s-6.55,5.58-11.36,5.47C457.39,129.14,450.4,129.26,443,129.26ZM305.85,331.43a35.73,35.73,0,0,0,.59-4.17q0-92.35.08-184.73c0-4.4-1.78-7.34-4.73-10.27Q272.33,103,243,73.59c-1.52-1.51-3.26-2.81-5.24-4.5-22.12,22.13-44,43.78-65.43,65.81-2.11,2.16-2.5,6.67-2.51,10.09q-.23,89-.09,178c0,2.72.28,5.44.44,8.27h29.9v-8.88c0-21.19-.05-42.37,0-63.56,0-9.67,2.28-11.83,12.07-11.85q25.84-.06,51.69,0c10.21,0,12.5,2.26,12.52,12.39.06,20.9,0,41.8,0,62.71v9.38Zm17.85-176.5V331.24H425.2V129.93H370.34c-10.45,10.48-20.1,20.32-29.95,29.95-3,2.92-6.7,2.78-10.12.48C328.43,159.12,326.82,157.54,323.7,154.93ZM152.24,331.49V155.68c-11.1,8.57-12.42,8.51-21.73-.91-8.06-8.16-16-16.41-23.93-24.49H51.4V331.49Zm297.1-219.36a31,31,0,0,0-2-3.87c-15-19-30.16-38-45.07-57.15-2.68-3.45-5.9-3.77-9.67-3.76q-47.83.07-95.67.09a41.66,41.66,0,0,0-5.73.9A20.36,20.36,0,0,0,293,51.08c19.11,19.19,38.13,38.47,57.5,57.4,2.27,2.21,6.42,3.38,9.75,3.49,12.69.39,25.39.16,38.09.16ZM185.64,48.72a40,40,0,0,0-4.36-.81c-33,0-66,0-99.06-.14-4.2,0-6.71,1.76-9.13,4.85-14,17.75-28,35.38-42,53.09-1.46,1.85-2.58,4-4.23,6.53,2.22.25,3.31.47,4.4.47,28.5,0,57,.08,85.51-.28,3.18-.05,7-2.05,9.37-4.33,12.2-11.72,24-23.83,36-35.81Zm52.42-26.4L130.68,128.89l10.57,12.16c2.63-2.51,4.68-4.4,6.65-6.37q40.46-40.4,80.89-80.81c8-8,10.77-7.94,18.84.12q39.27,39.2,78.4,78.52c2.76,2.78,4.6,6.47,7,9.9l13.45-12.25ZM217.54,264.13v66.93h41.58V264.13Z" fill="currentColor"/><path d="M238.38,201.08c-7.61,0-15.22.09-22.83,0-8.5-.12-11.37-2.8-11.44-10.95q-.18-22.41,0-44.81c.07-9.46,2.66-11.91,12.16-12q22-.09,44,0c9.36,0,11.59,2.15,11.66,11.41.11,15.22.13,30.44,0,45.65-.09,8.34-2.35,10.49-10.63,10.63-7.61.13-15.22,0-22.83,0Zm16-17.14V150.59h-33v33.35Z" fill="currentColor"/><path d="M403.87,206.16c0,7.61.1,15.22,0,22.83-.14,8.26-2.46,10.73-10.46,10.81q-19,.19-38,0c-7.89-.09-10.65-2.79-10.73-10.74q-.24-23.23,0-46.49c.08-7.47,2.85-10.3,10.21-10.41q19.44-.27,38.88,0c7.53.11,10,2.74,10.16,10.34.16,7.88,0,15.77,0,23.66Zm-17.25-16.72H362.08v33.15h24.54Z" fill="currentColor"/><path d="M131.61,205.81c0,7.92.21,15.84-.06,23.74-.28,7.69-2.82,10.15-10.39,10.24q-19.08.22-38.16,0c-8-.09-10.58-2.62-10.67-10.83q-.26-23.31,0-46.63c.1-7.66,2.66-10.11,10.34-10.21q19.08-.24,38.16,0c7.91.1,10.58,2.81,10.79,10.8.2,7.62,0,15.26,0,22.89ZM89.53,222.49h24.74V189.18H89.53Z" fill="currentColor"/></svg>