<svg id="Layer_3" data-name="Layer 3" xmlns="http://www.w3.org/2000/svg" viewBox="0 0 22.77 22.77"><path d="M22.27,22.77H.5a.5.5,0,0,1-.5-.5V.5A.5.5,0,0,1,.5,0H22.27a.5.5,0,0,1,.5.5V22.27a.5.5,0,0,1-.5.5ZM1,21.77H21.77V1H1V21.77Z" fill="currentColor"/><path d="M21.91,6.83H.86a.5.5,0,0,1,0-1H21.91a.5.5,0,0,1,0,1Z" fill="currentColor"/><path d="M3.43,2.31a1.11,1.11,0,1,0,1.1,1.1,1.1,1.1,0,0,0-1.1-1.1Z" fill="currentColor"/><path d="M6.61,2.31a1.11,1.11,0,1,0,1.1,1.1,1.11,1.11,0,0,0-1.1-1.1Z" fill="currentColor"/><path d="M9.78,2.31a1.11,1.11,0,0,0,0,2.21,1.11,1.11,0,1,0,0-2.21Z" fill="currentColor"/><path d="M11.39,10.84H4.55a.5.5,0,0,1,0-1h6.84a.5.5,0,0,1,0,1Z" fill="currentColor"/><path d="M11.39,14H4.55a.5.5,0,0,1-.5-.5.51.51,0,0,1,.5-.5h6.84a.51.51,0,0,1,.5.5.5.5,0,0,1-.5.5Z" fill="currentColor"/><path d="M11.39,17.17H4.55a.5.5,0,0,1-.5-.5.51.51,0,0,1,.5-.5h6.84a.51.51,0,0,1,.5.5.5.5,0,0,1-.5.5Z" fill="currentColor"/><path d="M18.22,17.17H13.89a.5.5,0,0,1-.5-.5V10.34a.5.5,0,0,1,.5-.5h4.33a.5.5,0,0,1,.5.5v6.33a.5.5,0,0,1-.5.5Zm-3.83-1h3.33V10.84H14.39v5.33Z" fill="currentColor"/></svg>