<svg id="Izolovaný_režim" data-name="Izolovaný režim" xmlns="http://www.w3.org/2000/svg" viewBox="0 0 960.22 960.22"><path d="M509,196.31C487.51,231,471.78,274.45,476,328.6c2.91-34.09,17.72-63.09,32.93-87.68,77.4-125.17,294.36-136.51,451.26-126.44V69.87C803.32,59.8,586.36,71.15,509,196.31Z" fill="#e94242"/><path d="M0,0V960.22H960.22V0ZM960.22,114.48V871.53C811.56,950,673.21,864,582.43,702.89c-48.95-86.84-84.07-195.51-99.53-312-3-22.46-5.76-41.12-6.87-62.31C471.78,274.45,487.51,231,509,196.31,586.36,71.15,803.32,59.8,960.22,69.87Z" fill="#2155a2"/></svg>