<svg id="Layer_3" data-name="Layer 3" xmlns="http://www.w3.org/2000/svg" viewBox="0 0 17.33 21.53"><path d="M10.83,21.53a.5.5,0,0,1-.5-.5V15a.5.5,0,0,1,.5-.5h6a.5.5,0,0,1,0,1h-5.5V21a.5.5,0,0,1-.5.5Z" fill="currentColor"/><path d="M10.83,21.53H.5A.5.5,0,0,1,0,21V.5A.5.5,0,0,1,.5,0H16.83a.5.5,0,0,1,.5.5V15a.5.5,0,0,1-.14.35l-6,6a.51.51,0,0,1-.36.15ZM1,20.53h9.62l5.71-5.71V1H1V20.53Z" fill="currentColor"/><path d="M9.75,4.79H3.87a.5.5,0,0,1-.5-.5.51.51,0,0,1,.5-.5H9.75a.5.5,0,0,1,.5.5.5.5,0,0,1-.5.5Z" fill="currentColor"/><path d="M13.62,7.21H3.87a.5.5,0,0,1,0-1h9.75a.5.5,0,0,1,0,1Z" fill="currentColor"/><path d="M13.62,9.63H3.87a.51.51,0,0,1-.5-.5.5.5,0,0,1,.5-.5h9.75a.5.5,0,0,1,.5.5.5.5,0,0,1-.5.5Z" fill="currentColor"/><path d="M8,12H3.87a.5.5,0,0,1-.5-.5.51.51,0,0,1,.5-.5H8a.51.51,0,0,1,.5.5A.5.5,0,0,1,8,12Z" fill="currentColor"/></svg>